%TF.GenerationSoftware,KiCad,Pcbnew,10.0.3*%
%TF.CreationDate,2026-09-30T07:43:39+02:00*%
%TF.ProjectId,FRI-ESP32,4652492d-4553-4503-9332-2e6b69636164,rev?*%
%TF.SameCoordinates,Original*%
%TF.FileFunction,Paste,Top*%
%TF.FilePolarity,Positive*%
%FSLAX46Y46*%
G04 Gerber Fmt 4.6, Leading zero omitted, Abs format (unit mm)*
G04 Created by KiCad (PCBNEW 10.0.3) date 2026-09-30 07:43:39*
%MOMM*%
%LPD*%
G01*
G04 APERTURE LIST*
G04 Aperture macros list*
%AMRoundRect*
0 Rectangle with rounded corners*
0 $1 Rounding radius*
0 $2 $3 $4 $5 $6 $7 $8 $9 X,Y pos of 4 corners*
0 Add a 4 corners polygon primitive as box body*
4,1,4,$2,$3,$4,$5,$6,$7,$8,$9,$2,$3,0*
0 Add four circle primitives for the rounded corners*
1,1,$1+$1,$2,$3*
1,1,$1+$1,$4,$5*
1,1,$1+$1,$6,$7*
1,1,$1+$1,$8,$9*
0 Add four rect primitives between the rounded corners*
20,1,$1+$1,$2,$3,$4,$5,0*
20,1,$1+$1,$4,$5,$6,$7,0*
20,1,$1+$1,$6,$7,$8,$9,0*
20,1,$1+$1,$8,$9,$2,$3,0*%
%AMFreePoly0*
4,1,6,0.725000,-0.725000,-0.725000,-0.725000,-0.725000,0.125000,-0.125000,0.725000,0.725000,0.725000,0.725000,-0.725000,0.725000,-0.725000,$1*%
G04 Aperture macros list end*
%ADD10RoundRect,0.250000X-0.250000X-0.475000X0.250000X-0.475000X0.250000X0.475000X-0.250000X0.475000X0*%
%ADD11R,0.900000X1.700000*%
%ADD12R,0.800000X0.400000*%
%ADD13R,0.400000X0.800000*%
%ADD14FreePoly0,0.000000*%
%ADD15R,1.450000X1.450000*%
%ADD16R,0.700000X0.700000*%
%ADD17RoundRect,0.150000X0.150000X-0.512500X0.150000X0.512500X-0.150000X0.512500X-0.150000X-0.512500X0*%
%ADD18RoundRect,0.135000X0.185000X-0.135000X0.185000X0.135000X-0.185000X0.135000X-0.185000X-0.135000X0*%
%ADD19RoundRect,0.135000X-0.135000X-0.185000X0.135000X-0.185000X0.135000X0.185000X-0.135000X0.185000X0*%
%ADD20RoundRect,0.135000X0.135000X0.185000X-0.135000X0.185000X-0.135000X-0.185000X0.135000X-0.185000X0*%
%ADD21RoundRect,0.150000X-0.150000X-0.470000X0.150000X-0.470000X0.150000X0.470000X-0.150000X0.470000X0*%
%ADD22RoundRect,0.075000X-0.075000X-0.545000X0.075000X-0.545000X0.075000X0.545000X-0.075000X0.545000X0*%
%ADD23RoundRect,0.243750X-0.243750X-0.456250X0.243750X-0.456250X0.243750X0.456250X-0.243750X0.456250X0*%
%ADD24RoundRect,0.050000X0.100000X0.250000X-0.100000X0.250000X-0.100000X-0.250000X0.100000X-0.250000X0*%
%ADD25RoundRect,0.250000X0.250000X0.475000X-0.250000X0.475000X-0.250000X-0.475000X0.250000X-0.475000X0*%
%ADD26RoundRect,0.140000X0.140000X0.170000X-0.140000X0.170000X-0.140000X-0.170000X0.140000X-0.170000X0*%
%ADD27RoundRect,0.140000X-0.140000X-0.170000X0.140000X-0.170000X0.140000X0.170000X-0.140000X0.170000X0*%
G04 APERTURE END LIST*
D10*
%TO.C,C2*%
X224150000Y-108100000D03*
X222250000Y-108100000D03*
%TD*%
D11*
%TO.C,USRBUTTON1*%
X213200000Y-104800000D03*
X216600000Y-104800000D03*
%TD*%
D12*
%TO.C,U3*%
X213200000Y-87300000D03*
X213200000Y-88100000D03*
X213200000Y-88900000D03*
X213200000Y-89700000D03*
X213200000Y-90500000D03*
X213200000Y-91300000D03*
X213200000Y-92100000D03*
X213200000Y-92900000D03*
X213200000Y-93700000D03*
X213200000Y-94500000D03*
X213200000Y-95300000D03*
D13*
X214300000Y-96200000D03*
X215100000Y-96200000D03*
X215900000Y-96200000D03*
X216700000Y-96200000D03*
X217500000Y-96200000D03*
X218300000Y-96200000D03*
X219100000Y-96200000D03*
X219900000Y-96200000D03*
X220700000Y-96200000D03*
X221500000Y-96200000D03*
X222300000Y-96200000D03*
X223100000Y-96200000D03*
X223900000Y-96200000D03*
D12*
X225000000Y-95300000D03*
X225000000Y-94500000D03*
X225000000Y-93700000D03*
X225000000Y-92900000D03*
X225000000Y-92100000D03*
X225000000Y-91300000D03*
X225000000Y-90500000D03*
X225000000Y-89700000D03*
X225000000Y-88900000D03*
X225000000Y-88100000D03*
X225000000Y-87300000D03*
D13*
X223900000Y-86400000D03*
X223100000Y-86400000D03*
X222300000Y-86400000D03*
X221500000Y-86400000D03*
X220700000Y-86400000D03*
X219900000Y-86400000D03*
X219100000Y-86400000D03*
X218300000Y-86400000D03*
X217500000Y-86400000D03*
X216700000Y-86400000D03*
X215900000Y-86400000D03*
X215100000Y-86400000D03*
X214300000Y-86400000D03*
D14*
X217125000Y-89325000D03*
D15*
X217125000Y-91300000D03*
X217125000Y-93275000D03*
X219100000Y-89325000D03*
X219100000Y-91300000D03*
X219100000Y-93275000D03*
X221075000Y-89325000D03*
X221075000Y-91300000D03*
X221075000Y-93275000D03*
D16*
X225050000Y-86350000D03*
X225050000Y-96250000D03*
X213150000Y-96250000D03*
X213150000Y-86350000D03*
%TD*%
D17*
%TO.C,U2*%
X217650001Y-118637500D03*
X218600000Y-118637500D03*
X219549999Y-118637500D03*
X219549999Y-116362500D03*
X218600000Y-116362500D03*
X217650001Y-116362500D03*
%TD*%
%TO.C,U1*%
X222050001Y-112337500D03*
X223000000Y-112337500D03*
X223949999Y-112337500D03*
X223949999Y-110062500D03*
X222050001Y-110062500D03*
%TD*%
D11*
%TO.C,RESET1*%
X205300000Y-96400000D03*
X208700000Y-96400000D03*
%TD*%
D18*
%TO.C,R10*%
X222500000Y-98609999D03*
X222500000Y-97590001D03*
%TD*%
D19*
%TO.C,R9*%
X210390001Y-92300000D03*
X211409999Y-92300000D03*
%TD*%
D20*
%TO.C,R8*%
X208890001Y-98700000D03*
X209909999Y-98700000D03*
%TD*%
D19*
%TO.C,R7*%
X230300000Y-89400000D03*
X231320000Y-89400000D03*
%TD*%
%TO.C,R6*%
X230142499Y-93500000D03*
X231162499Y-93500000D03*
%TD*%
%TO.C,R5*%
X228090000Y-100700000D03*
X229110000Y-100700000D03*
%TD*%
%TO.C,R4*%
X215790000Y-102500000D03*
X216810000Y-102500000D03*
%TD*%
%TO.C,R3*%
X221990001Y-116000000D03*
X223009999Y-116000000D03*
%TD*%
D20*
%TO.C,R2*%
X215809999Y-117200000D03*
X214790001Y-117200000D03*
%TD*%
D19*
%TO.C,R1*%
X221490001Y-118200000D03*
X222509999Y-118200000D03*
%TD*%
D21*
%TO.C,J1*%
X214800000Y-120675000D03*
X215600000Y-120675000D03*
D22*
X216750000Y-120675000D03*
X217750000Y-120675000D03*
X218250000Y-120675000D03*
X219250000Y-120675000D03*
D21*
X220400000Y-120675000D03*
X221200000Y-120675000D03*
X221200000Y-120675000D03*
X220400000Y-120675000D03*
D22*
X219750000Y-120675000D03*
X218750000Y-120675000D03*
X217250000Y-120675000D03*
X216250000Y-120675000D03*
D21*
X215600000Y-120675000D03*
X214800000Y-120675000D03*
%TD*%
D23*
%TO.C,D3*%
X229510000Y-87800000D03*
X231385000Y-87800000D03*
%TD*%
%TO.C,D2*%
X229462499Y-91900000D03*
X231337501Y-91900000D03*
%TD*%
D24*
%TO.C,D1*%
X215549999Y-118900000D03*
X214850001Y-118900000D03*
%TD*%
D25*
%TO.C,C7*%
X211449999Y-90500000D03*
X209550001Y-90500000D03*
%TD*%
D26*
%TO.C,C6*%
X211780000Y-89000000D03*
X210820000Y-89000000D03*
%TD*%
D27*
%TO.C,C5*%
X208920000Y-99700000D03*
X209880000Y-99700000D03*
%TD*%
D26*
%TO.C,C4*%
X228880000Y-105200000D03*
X227920000Y-105200000D03*
%TD*%
%TO.C,C3*%
X215480000Y-107000000D03*
X214520000Y-107000000D03*
%TD*%
D10*
%TO.C,C1*%
X222250000Y-114300000D03*
X224150000Y-114300000D03*
%TD*%
D11*
%TO.C,BOOT1*%
X226600000Y-103000000D03*
X230000000Y-103000000D03*
%TD*%
M02*
