%TF.GenerationSoftware,KiCad,Pcbnew,10.0.3*%
%TF.CreationDate,2026-09-30T07:43:39+02:00*%
%TF.ProjectId,FRI-ESP32,4652492d-4553-4503-9332-2e6b69636164,rev?*%
%TF.SameCoordinates,Original*%
%TF.FileFunction,Legend,Top*%
%TF.FilePolarity,Positive*%
%FSLAX46Y46*%
G04 Gerber Fmt 4.6, Leading zero omitted, Abs format (unit mm)*
G04 Created by KiCad (PCBNEW 10.0.3) date 2026-09-30 07:43:39*
%MOMM*%
%LPD*%
G01*
G04 APERTURE LIST*
%ADD10C,0.150000*%
%ADD11C,0.120000*%
G04 APERTURE END LIST*
D10*
X231466666Y-124604819D02*
X231133333Y-124128628D01*
X230895238Y-124604819D02*
X230895238Y-123604819D01*
X230895238Y-123604819D02*
X231276190Y-123604819D01*
X231276190Y-123604819D02*
X231371428Y-123652438D01*
X231371428Y-123652438D02*
X231419047Y-123700057D01*
X231419047Y-123700057D02*
X231466666Y-123795295D01*
X231466666Y-123795295D02*
X231466666Y-123938152D01*
X231466666Y-123938152D02*
X231419047Y-124033390D01*
X231419047Y-124033390D02*
X231371428Y-124081009D01*
X231371428Y-124081009D02*
X231276190Y-124128628D01*
X231276190Y-124128628D02*
X230895238Y-124128628D01*
X231895238Y-124081009D02*
X232228571Y-124081009D01*
X232371428Y-124604819D02*
X231895238Y-124604819D01*
X231895238Y-124604819D02*
X231895238Y-123604819D01*
X231895238Y-123604819D02*
X232371428Y-123604819D01*
X233133333Y-124081009D02*
X232800000Y-124081009D01*
X232800000Y-124604819D02*
X232800000Y-123604819D01*
X232800000Y-123604819D02*
X233276190Y-123604819D01*
X233800000Y-123604819D02*
X233800000Y-123842914D01*
X233561905Y-123747676D02*
X233800000Y-123842914D01*
X233800000Y-123842914D02*
X234038095Y-123747676D01*
X233657143Y-124033390D02*
X233800000Y-123842914D01*
X233800000Y-123842914D02*
X233942857Y-124033390D01*
X234561905Y-123604819D02*
X234561905Y-123842914D01*
X234323810Y-123747676D02*
X234561905Y-123842914D01*
X234561905Y-123842914D02*
X234800000Y-123747676D01*
X234419048Y-124033390D02*
X234561905Y-123842914D01*
X234561905Y-123842914D02*
X234704762Y-124033390D01*
X202066666Y-124404819D02*
X201733333Y-123928628D01*
X201495238Y-124404819D02*
X201495238Y-123404819D01*
X201495238Y-123404819D02*
X201876190Y-123404819D01*
X201876190Y-123404819D02*
X201971428Y-123452438D01*
X201971428Y-123452438D02*
X202019047Y-123500057D01*
X202019047Y-123500057D02*
X202066666Y-123595295D01*
X202066666Y-123595295D02*
X202066666Y-123738152D01*
X202066666Y-123738152D02*
X202019047Y-123833390D01*
X202019047Y-123833390D02*
X201971428Y-123881009D01*
X201971428Y-123881009D02*
X201876190Y-123928628D01*
X201876190Y-123928628D02*
X201495238Y-123928628D01*
X202495238Y-123881009D02*
X202828571Y-123881009D01*
X202971428Y-124404819D02*
X202495238Y-124404819D01*
X202495238Y-124404819D02*
X202495238Y-123404819D01*
X202495238Y-123404819D02*
X202971428Y-123404819D01*
X203733333Y-123881009D02*
X203400000Y-123881009D01*
X203400000Y-124404819D02*
X203400000Y-123404819D01*
X203400000Y-123404819D02*
X203876190Y-123404819D01*
X204400000Y-123404819D02*
X204400000Y-123642914D01*
X204161905Y-123547676D02*
X204400000Y-123642914D01*
X204400000Y-123642914D02*
X204638095Y-123547676D01*
X204257143Y-123833390D02*
X204400000Y-123642914D01*
X204400000Y-123642914D02*
X204542857Y-123833390D01*
X205161905Y-123404819D02*
X205161905Y-123642914D01*
X204923810Y-123547676D02*
X205161905Y-123642914D01*
X205161905Y-123642914D02*
X205400000Y-123547676D01*
X205019048Y-123833390D02*
X205161905Y-123642914D01*
X205161905Y-123642914D02*
X205304762Y-123833390D01*
X201766666Y-86204819D02*
X201433333Y-85728628D01*
X201195238Y-86204819D02*
X201195238Y-85204819D01*
X201195238Y-85204819D02*
X201576190Y-85204819D01*
X201576190Y-85204819D02*
X201671428Y-85252438D01*
X201671428Y-85252438D02*
X201719047Y-85300057D01*
X201719047Y-85300057D02*
X201766666Y-85395295D01*
X201766666Y-85395295D02*
X201766666Y-85538152D01*
X201766666Y-85538152D02*
X201719047Y-85633390D01*
X201719047Y-85633390D02*
X201671428Y-85681009D01*
X201671428Y-85681009D02*
X201576190Y-85728628D01*
X201576190Y-85728628D02*
X201195238Y-85728628D01*
X202195238Y-85681009D02*
X202528571Y-85681009D01*
X202671428Y-86204819D02*
X202195238Y-86204819D01*
X202195238Y-86204819D02*
X202195238Y-85204819D01*
X202195238Y-85204819D02*
X202671428Y-85204819D01*
X203433333Y-85681009D02*
X203100000Y-85681009D01*
X203100000Y-86204819D02*
X203100000Y-85204819D01*
X203100000Y-85204819D02*
X203576190Y-85204819D01*
X204100000Y-85204819D02*
X204100000Y-85442914D01*
X203861905Y-85347676D02*
X204100000Y-85442914D01*
X204100000Y-85442914D02*
X204338095Y-85347676D01*
X203957143Y-85633390D02*
X204100000Y-85442914D01*
X204100000Y-85442914D02*
X204242857Y-85633390D01*
X204861905Y-85204819D02*
X204861905Y-85442914D01*
X204623810Y-85347676D02*
X204861905Y-85442914D01*
X204861905Y-85442914D02*
X205100000Y-85347676D01*
X204719048Y-85633390D02*
X204861905Y-85442914D01*
X204861905Y-85442914D02*
X205004762Y-85633390D01*
X202966666Y-100284819D02*
X202966666Y-100999104D01*
X202966666Y-100999104D02*
X202919047Y-101141961D01*
X202919047Y-101141961D02*
X202823809Y-101237200D01*
X202823809Y-101237200D02*
X202680952Y-101284819D01*
X202680952Y-101284819D02*
X202585714Y-101284819D01*
X203347619Y-100284819D02*
X203966666Y-100284819D01*
X203966666Y-100284819D02*
X203633333Y-100665771D01*
X203633333Y-100665771D02*
X203776190Y-100665771D01*
X203776190Y-100665771D02*
X203871428Y-100713390D01*
X203871428Y-100713390D02*
X203919047Y-100761009D01*
X203919047Y-100761009D02*
X203966666Y-100856247D01*
X203966666Y-100856247D02*
X203966666Y-101094342D01*
X203966666Y-101094342D02*
X203919047Y-101189580D01*
X203919047Y-101189580D02*
X203871428Y-101237200D01*
X203871428Y-101237200D02*
X203776190Y-101284819D01*
X203776190Y-101284819D02*
X203490476Y-101284819D01*
X203490476Y-101284819D02*
X203395238Y-101237200D01*
X203395238Y-101237200D02*
X203347619Y-101189580D01*
X232766666Y-100284819D02*
X232766666Y-100999104D01*
X232766666Y-100999104D02*
X232719047Y-101141961D01*
X232719047Y-101141961D02*
X232623809Y-101237200D01*
X232623809Y-101237200D02*
X232480952Y-101284819D01*
X232480952Y-101284819D02*
X232385714Y-101284819D01*
X233195238Y-100380057D02*
X233242857Y-100332438D01*
X233242857Y-100332438D02*
X233338095Y-100284819D01*
X233338095Y-100284819D02*
X233576190Y-100284819D01*
X233576190Y-100284819D02*
X233671428Y-100332438D01*
X233671428Y-100332438D02*
X233719047Y-100380057D01*
X233719047Y-100380057D02*
X233766666Y-100475295D01*
X233766666Y-100475295D02*
X233766666Y-100570533D01*
X233766666Y-100570533D02*
X233719047Y-100713390D01*
X233719047Y-100713390D02*
X233147619Y-101284819D01*
X233147619Y-101284819D02*
X233766666Y-101284819D01*
X223033333Y-106779580D02*
X222985714Y-106827200D01*
X222985714Y-106827200D02*
X222842857Y-106874819D01*
X222842857Y-106874819D02*
X222747619Y-106874819D01*
X222747619Y-106874819D02*
X222604762Y-106827200D01*
X222604762Y-106827200D02*
X222509524Y-106731961D01*
X222509524Y-106731961D02*
X222461905Y-106636723D01*
X222461905Y-106636723D02*
X222414286Y-106446247D01*
X222414286Y-106446247D02*
X222414286Y-106303390D01*
X222414286Y-106303390D02*
X222461905Y-106112914D01*
X222461905Y-106112914D02*
X222509524Y-106017676D01*
X222509524Y-106017676D02*
X222604762Y-105922438D01*
X222604762Y-105922438D02*
X222747619Y-105874819D01*
X222747619Y-105874819D02*
X222842857Y-105874819D01*
X222842857Y-105874819D02*
X222985714Y-105922438D01*
X222985714Y-105922438D02*
X223033333Y-105970057D01*
X223414286Y-105970057D02*
X223461905Y-105922438D01*
X223461905Y-105922438D02*
X223557143Y-105874819D01*
X223557143Y-105874819D02*
X223795238Y-105874819D01*
X223795238Y-105874819D02*
X223890476Y-105922438D01*
X223890476Y-105922438D02*
X223938095Y-105970057D01*
X223938095Y-105970057D02*
X223985714Y-106065295D01*
X223985714Y-106065295D02*
X223985714Y-106160533D01*
X223985714Y-106160533D02*
X223938095Y-106303390D01*
X223938095Y-106303390D02*
X223366667Y-106874819D01*
X223366667Y-106874819D02*
X223985714Y-106874819D01*
X211254819Y-109371428D02*
X212064342Y-109371428D01*
X212064342Y-109371428D02*
X212159580Y-109323809D01*
X212159580Y-109323809D02*
X212207200Y-109276190D01*
X212207200Y-109276190D02*
X212254819Y-109180952D01*
X212254819Y-109180952D02*
X212254819Y-108990476D01*
X212254819Y-108990476D02*
X212207200Y-108895238D01*
X212207200Y-108895238D02*
X212159580Y-108847619D01*
X212159580Y-108847619D02*
X212064342Y-108800000D01*
X212064342Y-108800000D02*
X211254819Y-108800000D01*
X212207200Y-108371428D02*
X212254819Y-108228571D01*
X212254819Y-108228571D02*
X212254819Y-107990476D01*
X212254819Y-107990476D02*
X212207200Y-107895238D01*
X212207200Y-107895238D02*
X212159580Y-107847619D01*
X212159580Y-107847619D02*
X212064342Y-107800000D01*
X212064342Y-107800000D02*
X211969104Y-107800000D01*
X211969104Y-107800000D02*
X211873866Y-107847619D01*
X211873866Y-107847619D02*
X211826247Y-107895238D01*
X211826247Y-107895238D02*
X211778628Y-107990476D01*
X211778628Y-107990476D02*
X211731009Y-108180952D01*
X211731009Y-108180952D02*
X211683390Y-108276190D01*
X211683390Y-108276190D02*
X211635771Y-108323809D01*
X211635771Y-108323809D02*
X211540533Y-108371428D01*
X211540533Y-108371428D02*
X211445295Y-108371428D01*
X211445295Y-108371428D02*
X211350057Y-108323809D01*
X211350057Y-108323809D02*
X211302438Y-108276190D01*
X211302438Y-108276190D02*
X211254819Y-108180952D01*
X211254819Y-108180952D02*
X211254819Y-107942857D01*
X211254819Y-107942857D02*
X211302438Y-107800000D01*
X212254819Y-106800000D02*
X211778628Y-107133333D01*
X212254819Y-107371428D02*
X211254819Y-107371428D01*
X211254819Y-107371428D02*
X211254819Y-106990476D01*
X211254819Y-106990476D02*
X211302438Y-106895238D01*
X211302438Y-106895238D02*
X211350057Y-106847619D01*
X211350057Y-106847619D02*
X211445295Y-106800000D01*
X211445295Y-106800000D02*
X211588152Y-106800000D01*
X211588152Y-106800000D02*
X211683390Y-106847619D01*
X211683390Y-106847619D02*
X211731009Y-106895238D01*
X211731009Y-106895238D02*
X211778628Y-106990476D01*
X211778628Y-106990476D02*
X211778628Y-107371428D01*
X211731009Y-106038095D02*
X211778628Y-105895238D01*
X211778628Y-105895238D02*
X211826247Y-105847619D01*
X211826247Y-105847619D02*
X211921485Y-105800000D01*
X211921485Y-105800000D02*
X212064342Y-105800000D01*
X212064342Y-105800000D02*
X212159580Y-105847619D01*
X212159580Y-105847619D02*
X212207200Y-105895238D01*
X212207200Y-105895238D02*
X212254819Y-105990476D01*
X212254819Y-105990476D02*
X212254819Y-106371428D01*
X212254819Y-106371428D02*
X211254819Y-106371428D01*
X211254819Y-106371428D02*
X211254819Y-106038095D01*
X211254819Y-106038095D02*
X211302438Y-105942857D01*
X211302438Y-105942857D02*
X211350057Y-105895238D01*
X211350057Y-105895238D02*
X211445295Y-105847619D01*
X211445295Y-105847619D02*
X211540533Y-105847619D01*
X211540533Y-105847619D02*
X211635771Y-105895238D01*
X211635771Y-105895238D02*
X211683390Y-105942857D01*
X211683390Y-105942857D02*
X211731009Y-106038095D01*
X211731009Y-106038095D02*
X211731009Y-106371428D01*
X211254819Y-105371428D02*
X212064342Y-105371428D01*
X212064342Y-105371428D02*
X212159580Y-105323809D01*
X212159580Y-105323809D02*
X212207200Y-105276190D01*
X212207200Y-105276190D02*
X212254819Y-105180952D01*
X212254819Y-105180952D02*
X212254819Y-104990476D01*
X212254819Y-104990476D02*
X212207200Y-104895238D01*
X212207200Y-104895238D02*
X212159580Y-104847619D01*
X212159580Y-104847619D02*
X212064342Y-104800000D01*
X212064342Y-104800000D02*
X211254819Y-104800000D01*
X211254819Y-104466666D02*
X211254819Y-103895238D01*
X212254819Y-104180952D02*
X211254819Y-104180952D01*
X211254819Y-103704761D02*
X211254819Y-103133333D01*
X212254819Y-103419047D02*
X211254819Y-103419047D01*
X211254819Y-102609523D02*
X211254819Y-102419047D01*
X211254819Y-102419047D02*
X211302438Y-102323809D01*
X211302438Y-102323809D02*
X211397676Y-102228571D01*
X211397676Y-102228571D02*
X211588152Y-102180952D01*
X211588152Y-102180952D02*
X211921485Y-102180952D01*
X211921485Y-102180952D02*
X212111961Y-102228571D01*
X212111961Y-102228571D02*
X212207200Y-102323809D01*
X212207200Y-102323809D02*
X212254819Y-102419047D01*
X212254819Y-102419047D02*
X212254819Y-102609523D01*
X212254819Y-102609523D02*
X212207200Y-102704761D01*
X212207200Y-102704761D02*
X212111961Y-102799999D01*
X212111961Y-102799999D02*
X211921485Y-102847618D01*
X211921485Y-102847618D02*
X211588152Y-102847618D01*
X211588152Y-102847618D02*
X211397676Y-102799999D01*
X211397676Y-102799999D02*
X211302438Y-102704761D01*
X211302438Y-102704761D02*
X211254819Y-102609523D01*
X212254819Y-101752380D02*
X211254819Y-101752380D01*
X211254819Y-101752380D02*
X212254819Y-101180952D01*
X212254819Y-101180952D02*
X211254819Y-101180952D01*
X212254819Y-100180952D02*
X212254819Y-100752380D01*
X212254819Y-100466666D02*
X211254819Y-100466666D01*
X211254819Y-100466666D02*
X211397676Y-100561904D01*
X211397676Y-100561904D02*
X211492914Y-100657142D01*
X211492914Y-100657142D02*
X211540533Y-100752380D01*
X226338095Y-88054819D02*
X226338095Y-88864342D01*
X226338095Y-88864342D02*
X226385714Y-88959580D01*
X226385714Y-88959580D02*
X226433333Y-89007200D01*
X226433333Y-89007200D02*
X226528571Y-89054819D01*
X226528571Y-89054819D02*
X226719047Y-89054819D01*
X226719047Y-89054819D02*
X226814285Y-89007200D01*
X226814285Y-89007200D02*
X226861904Y-88959580D01*
X226861904Y-88959580D02*
X226909523Y-88864342D01*
X226909523Y-88864342D02*
X226909523Y-88054819D01*
X227290476Y-88054819D02*
X227909523Y-88054819D01*
X227909523Y-88054819D02*
X227576190Y-88435771D01*
X227576190Y-88435771D02*
X227719047Y-88435771D01*
X227719047Y-88435771D02*
X227814285Y-88483390D01*
X227814285Y-88483390D02*
X227861904Y-88531009D01*
X227861904Y-88531009D02*
X227909523Y-88626247D01*
X227909523Y-88626247D02*
X227909523Y-88864342D01*
X227909523Y-88864342D02*
X227861904Y-88959580D01*
X227861904Y-88959580D02*
X227814285Y-89007200D01*
X227814285Y-89007200D02*
X227719047Y-89054819D01*
X227719047Y-89054819D02*
X227433333Y-89054819D01*
X227433333Y-89054819D02*
X227338095Y-89007200D01*
X227338095Y-89007200D02*
X227290476Y-88959580D01*
X214438094Y-82769104D02*
X214914284Y-82769104D01*
X214342856Y-83054819D02*
X214676189Y-82054819D01*
X214676189Y-82054819D02*
X215009522Y-83054819D01*
X215342856Y-82388152D02*
X215342856Y-83054819D01*
X215342856Y-82483390D02*
X215390475Y-82435771D01*
X215390475Y-82435771D02*
X215485713Y-82388152D01*
X215485713Y-82388152D02*
X215628570Y-82388152D01*
X215628570Y-82388152D02*
X215723808Y-82435771D01*
X215723808Y-82435771D02*
X215771427Y-82531009D01*
X215771427Y-82531009D02*
X215771427Y-83054819D01*
X216104761Y-82388152D02*
X216485713Y-82388152D01*
X216247618Y-82054819D02*
X216247618Y-82911961D01*
X216247618Y-82911961D02*
X216295237Y-83007200D01*
X216295237Y-83007200D02*
X216390475Y-83054819D01*
X216390475Y-83054819D02*
X216485713Y-83054819D01*
X217199999Y-83007200D02*
X217104761Y-83054819D01*
X217104761Y-83054819D02*
X216914285Y-83054819D01*
X216914285Y-83054819D02*
X216819047Y-83007200D01*
X216819047Y-83007200D02*
X216771428Y-82911961D01*
X216771428Y-82911961D02*
X216771428Y-82531009D01*
X216771428Y-82531009D02*
X216819047Y-82435771D01*
X216819047Y-82435771D02*
X216914285Y-82388152D01*
X216914285Y-82388152D02*
X217104761Y-82388152D01*
X217104761Y-82388152D02*
X217199999Y-82435771D01*
X217199999Y-82435771D02*
X217247618Y-82531009D01*
X217247618Y-82531009D02*
X217247618Y-82626247D01*
X217247618Y-82626247D02*
X216771428Y-82721485D01*
X217676190Y-82388152D02*
X217676190Y-83054819D01*
X217676190Y-82483390D02*
X217723809Y-82435771D01*
X217723809Y-82435771D02*
X217819047Y-82388152D01*
X217819047Y-82388152D02*
X217961904Y-82388152D01*
X217961904Y-82388152D02*
X218057142Y-82435771D01*
X218057142Y-82435771D02*
X218104761Y-82531009D01*
X218104761Y-82531009D02*
X218104761Y-83054819D01*
X218580952Y-82388152D02*
X218580952Y-83054819D01*
X218580952Y-82483390D02*
X218628571Y-82435771D01*
X218628571Y-82435771D02*
X218723809Y-82388152D01*
X218723809Y-82388152D02*
X218866666Y-82388152D01*
X218866666Y-82388152D02*
X218961904Y-82435771D01*
X218961904Y-82435771D02*
X219009523Y-82531009D01*
X219009523Y-82531009D02*
X219009523Y-83054819D01*
X219914285Y-83054819D02*
X219914285Y-82531009D01*
X219914285Y-82531009D02*
X219866666Y-82435771D01*
X219866666Y-82435771D02*
X219771428Y-82388152D01*
X219771428Y-82388152D02*
X219580952Y-82388152D01*
X219580952Y-82388152D02*
X219485714Y-82435771D01*
X219914285Y-83007200D02*
X219819047Y-83054819D01*
X219819047Y-83054819D02*
X219580952Y-83054819D01*
X219580952Y-83054819D02*
X219485714Y-83007200D01*
X219485714Y-83007200D02*
X219438095Y-82911961D01*
X219438095Y-82911961D02*
X219438095Y-82816723D01*
X219438095Y-82816723D02*
X219485714Y-82721485D01*
X219485714Y-82721485D02*
X219580952Y-82673866D01*
X219580952Y-82673866D02*
X219819047Y-82673866D01*
X219819047Y-82673866D02*
X219914285Y-82626247D01*
X221104762Y-82769104D02*
X221580952Y-82769104D01*
X221009524Y-83054819D02*
X221342857Y-82054819D01*
X221342857Y-82054819D02*
X221676190Y-83054819D01*
X222009524Y-83054819D02*
X222009524Y-82388152D01*
X222009524Y-82578628D02*
X222057143Y-82483390D01*
X222057143Y-82483390D02*
X222104762Y-82435771D01*
X222104762Y-82435771D02*
X222200000Y-82388152D01*
X222200000Y-82388152D02*
X222295238Y-82388152D01*
X223009524Y-83007200D02*
X222914286Y-83054819D01*
X222914286Y-83054819D02*
X222723810Y-83054819D01*
X222723810Y-83054819D02*
X222628572Y-83007200D01*
X222628572Y-83007200D02*
X222580953Y-82911961D01*
X222580953Y-82911961D02*
X222580953Y-82531009D01*
X222580953Y-82531009D02*
X222628572Y-82435771D01*
X222628572Y-82435771D02*
X222723810Y-82388152D01*
X222723810Y-82388152D02*
X222914286Y-82388152D01*
X222914286Y-82388152D02*
X223009524Y-82435771D01*
X223009524Y-82435771D02*
X223057143Y-82531009D01*
X223057143Y-82531009D02*
X223057143Y-82626247D01*
X223057143Y-82626247D02*
X222580953Y-82721485D01*
X223914286Y-83054819D02*
X223914286Y-82531009D01*
X223914286Y-82531009D02*
X223866667Y-82435771D01*
X223866667Y-82435771D02*
X223771429Y-82388152D01*
X223771429Y-82388152D02*
X223580953Y-82388152D01*
X223580953Y-82388152D02*
X223485715Y-82435771D01*
X223914286Y-83007200D02*
X223819048Y-83054819D01*
X223819048Y-83054819D02*
X223580953Y-83054819D01*
X223580953Y-83054819D02*
X223485715Y-83007200D01*
X223485715Y-83007200D02*
X223438096Y-82911961D01*
X223438096Y-82911961D02*
X223438096Y-82816723D01*
X223438096Y-82816723D02*
X223485715Y-82721485D01*
X223485715Y-82721485D02*
X223580953Y-82673866D01*
X223580953Y-82673866D02*
X223819048Y-82673866D01*
X223819048Y-82673866D02*
X223914286Y-82626247D01*
X217925494Y-114190128D02*
X217925494Y-114999651D01*
X217925494Y-114999651D02*
X217973113Y-115094889D01*
X217973113Y-115094889D02*
X218020732Y-115142509D01*
X218020732Y-115142509D02*
X218115970Y-115190128D01*
X218115970Y-115190128D02*
X218306446Y-115190128D01*
X218306446Y-115190128D02*
X218401684Y-115142509D01*
X218401684Y-115142509D02*
X218449303Y-115094889D01*
X218449303Y-115094889D02*
X218496922Y-114999651D01*
X218496922Y-114999651D02*
X218496922Y-114190128D01*
X218925494Y-114285366D02*
X218973113Y-114237747D01*
X218973113Y-114237747D02*
X219068351Y-114190128D01*
X219068351Y-114190128D02*
X219306446Y-114190128D01*
X219306446Y-114190128D02*
X219401684Y-114237747D01*
X219401684Y-114237747D02*
X219449303Y-114285366D01*
X219449303Y-114285366D02*
X219496922Y-114380604D01*
X219496922Y-114380604D02*
X219496922Y-114475842D01*
X219496922Y-114475842D02*
X219449303Y-114618699D01*
X219449303Y-114618699D02*
X218877875Y-115190128D01*
X218877875Y-115190128D02*
X219496922Y-115190128D01*
X221173404Y-107967420D02*
X221173404Y-108776943D01*
X221173404Y-108776943D02*
X221221023Y-108872181D01*
X221221023Y-108872181D02*
X221268642Y-108919801D01*
X221268642Y-108919801D02*
X221363880Y-108967420D01*
X221363880Y-108967420D02*
X221554356Y-108967420D01*
X221554356Y-108967420D02*
X221649594Y-108919801D01*
X221649594Y-108919801D02*
X221697213Y-108872181D01*
X221697213Y-108872181D02*
X221744832Y-108776943D01*
X221744832Y-108776943D02*
X221744832Y-107967420D01*
X222744832Y-108967420D02*
X222173404Y-108967420D01*
X222459118Y-108967420D02*
X222459118Y-107967420D01*
X222459118Y-107967420D02*
X222363880Y-108110277D01*
X222363880Y-108110277D02*
X222268642Y-108205515D01*
X222268642Y-108205515D02*
X222173404Y-108253134D01*
X205171428Y-94454819D02*
X204838095Y-93978628D01*
X204600000Y-94454819D02*
X204600000Y-93454819D01*
X204600000Y-93454819D02*
X204980952Y-93454819D01*
X204980952Y-93454819D02*
X205076190Y-93502438D01*
X205076190Y-93502438D02*
X205123809Y-93550057D01*
X205123809Y-93550057D02*
X205171428Y-93645295D01*
X205171428Y-93645295D02*
X205171428Y-93788152D01*
X205171428Y-93788152D02*
X205123809Y-93883390D01*
X205123809Y-93883390D02*
X205076190Y-93931009D01*
X205076190Y-93931009D02*
X204980952Y-93978628D01*
X204980952Y-93978628D02*
X204600000Y-93978628D01*
X205600000Y-93931009D02*
X205933333Y-93931009D01*
X206076190Y-94454819D02*
X205600000Y-94454819D01*
X205600000Y-94454819D02*
X205600000Y-93454819D01*
X205600000Y-93454819D02*
X206076190Y-93454819D01*
X206457143Y-94407200D02*
X206600000Y-94454819D01*
X206600000Y-94454819D02*
X206838095Y-94454819D01*
X206838095Y-94454819D02*
X206933333Y-94407200D01*
X206933333Y-94407200D02*
X206980952Y-94359580D01*
X206980952Y-94359580D02*
X207028571Y-94264342D01*
X207028571Y-94264342D02*
X207028571Y-94169104D01*
X207028571Y-94169104D02*
X206980952Y-94073866D01*
X206980952Y-94073866D02*
X206933333Y-94026247D01*
X206933333Y-94026247D02*
X206838095Y-93978628D01*
X206838095Y-93978628D02*
X206647619Y-93931009D01*
X206647619Y-93931009D02*
X206552381Y-93883390D01*
X206552381Y-93883390D02*
X206504762Y-93835771D01*
X206504762Y-93835771D02*
X206457143Y-93740533D01*
X206457143Y-93740533D02*
X206457143Y-93645295D01*
X206457143Y-93645295D02*
X206504762Y-93550057D01*
X206504762Y-93550057D02*
X206552381Y-93502438D01*
X206552381Y-93502438D02*
X206647619Y-93454819D01*
X206647619Y-93454819D02*
X206885714Y-93454819D01*
X206885714Y-93454819D02*
X207028571Y-93502438D01*
X207457143Y-93931009D02*
X207790476Y-93931009D01*
X207933333Y-94454819D02*
X207457143Y-94454819D01*
X207457143Y-94454819D02*
X207457143Y-93454819D01*
X207457143Y-93454819D02*
X207933333Y-93454819D01*
X208219048Y-93454819D02*
X208790476Y-93454819D01*
X208504762Y-94454819D02*
X208504762Y-93454819D01*
X209647619Y-94454819D02*
X209076191Y-94454819D01*
X209361905Y-94454819D02*
X209361905Y-93454819D01*
X209361905Y-93454819D02*
X209266667Y-93597676D01*
X209266667Y-93597676D02*
X209171429Y-93692914D01*
X209171429Y-93692914D02*
X209076191Y-93740533D01*
X222257142Y-100254819D02*
X221923809Y-99778628D01*
X221685714Y-100254819D02*
X221685714Y-99254819D01*
X221685714Y-99254819D02*
X222066666Y-99254819D01*
X222066666Y-99254819D02*
X222161904Y-99302438D01*
X222161904Y-99302438D02*
X222209523Y-99350057D01*
X222209523Y-99350057D02*
X222257142Y-99445295D01*
X222257142Y-99445295D02*
X222257142Y-99588152D01*
X222257142Y-99588152D02*
X222209523Y-99683390D01*
X222209523Y-99683390D02*
X222161904Y-99731009D01*
X222161904Y-99731009D02*
X222066666Y-99778628D01*
X222066666Y-99778628D02*
X221685714Y-99778628D01*
X223209523Y-100254819D02*
X222638095Y-100254819D01*
X222923809Y-100254819D02*
X222923809Y-99254819D01*
X222923809Y-99254819D02*
X222828571Y-99397676D01*
X222828571Y-99397676D02*
X222733333Y-99492914D01*
X222733333Y-99492914D02*
X222638095Y-99540533D01*
X223828571Y-99254819D02*
X223923809Y-99254819D01*
X223923809Y-99254819D02*
X224019047Y-99302438D01*
X224019047Y-99302438D02*
X224066666Y-99350057D01*
X224066666Y-99350057D02*
X224114285Y-99445295D01*
X224114285Y-99445295D02*
X224161904Y-99635771D01*
X224161904Y-99635771D02*
X224161904Y-99873866D01*
X224161904Y-99873866D02*
X224114285Y-100064342D01*
X224114285Y-100064342D02*
X224066666Y-100159580D01*
X224066666Y-100159580D02*
X224019047Y-100207200D01*
X224019047Y-100207200D02*
X223923809Y-100254819D01*
X223923809Y-100254819D02*
X223828571Y-100254819D01*
X223828571Y-100254819D02*
X223733333Y-100207200D01*
X223733333Y-100207200D02*
X223685714Y-100159580D01*
X223685714Y-100159580D02*
X223638095Y-100064342D01*
X223638095Y-100064342D02*
X223590476Y-99873866D01*
X223590476Y-99873866D02*
X223590476Y-99635771D01*
X223590476Y-99635771D02*
X223638095Y-99445295D01*
X223638095Y-99445295D02*
X223685714Y-99350057D01*
X223685714Y-99350057D02*
X223733333Y-99302438D01*
X223733333Y-99302438D02*
X223828571Y-99254819D01*
X208633333Y-92854819D02*
X208300000Y-92378628D01*
X208061905Y-92854819D02*
X208061905Y-91854819D01*
X208061905Y-91854819D02*
X208442857Y-91854819D01*
X208442857Y-91854819D02*
X208538095Y-91902438D01*
X208538095Y-91902438D02*
X208585714Y-91950057D01*
X208585714Y-91950057D02*
X208633333Y-92045295D01*
X208633333Y-92045295D02*
X208633333Y-92188152D01*
X208633333Y-92188152D02*
X208585714Y-92283390D01*
X208585714Y-92283390D02*
X208538095Y-92331009D01*
X208538095Y-92331009D02*
X208442857Y-92378628D01*
X208442857Y-92378628D02*
X208061905Y-92378628D01*
X209109524Y-92854819D02*
X209300000Y-92854819D01*
X209300000Y-92854819D02*
X209395238Y-92807200D01*
X209395238Y-92807200D02*
X209442857Y-92759580D01*
X209442857Y-92759580D02*
X209538095Y-92616723D01*
X209538095Y-92616723D02*
X209585714Y-92426247D01*
X209585714Y-92426247D02*
X209585714Y-92045295D01*
X209585714Y-92045295D02*
X209538095Y-91950057D01*
X209538095Y-91950057D02*
X209490476Y-91902438D01*
X209490476Y-91902438D02*
X209395238Y-91854819D01*
X209395238Y-91854819D02*
X209204762Y-91854819D01*
X209204762Y-91854819D02*
X209109524Y-91902438D01*
X209109524Y-91902438D02*
X209061905Y-91950057D01*
X209061905Y-91950057D02*
X209014286Y-92045295D01*
X209014286Y-92045295D02*
X209014286Y-92283390D01*
X209014286Y-92283390D02*
X209061905Y-92378628D01*
X209061905Y-92378628D02*
X209109524Y-92426247D01*
X209109524Y-92426247D02*
X209204762Y-92473866D01*
X209204762Y-92473866D02*
X209395238Y-92473866D01*
X209395238Y-92473866D02*
X209490476Y-92426247D01*
X209490476Y-92426247D02*
X209538095Y-92378628D01*
X209538095Y-92378628D02*
X209585714Y-92283390D01*
X207333333Y-99254819D02*
X207000000Y-98778628D01*
X206761905Y-99254819D02*
X206761905Y-98254819D01*
X206761905Y-98254819D02*
X207142857Y-98254819D01*
X207142857Y-98254819D02*
X207238095Y-98302438D01*
X207238095Y-98302438D02*
X207285714Y-98350057D01*
X207285714Y-98350057D02*
X207333333Y-98445295D01*
X207333333Y-98445295D02*
X207333333Y-98588152D01*
X207333333Y-98588152D02*
X207285714Y-98683390D01*
X207285714Y-98683390D02*
X207238095Y-98731009D01*
X207238095Y-98731009D02*
X207142857Y-98778628D01*
X207142857Y-98778628D02*
X206761905Y-98778628D01*
X207904762Y-98683390D02*
X207809524Y-98635771D01*
X207809524Y-98635771D02*
X207761905Y-98588152D01*
X207761905Y-98588152D02*
X207714286Y-98492914D01*
X207714286Y-98492914D02*
X207714286Y-98445295D01*
X207714286Y-98445295D02*
X207761905Y-98350057D01*
X207761905Y-98350057D02*
X207809524Y-98302438D01*
X207809524Y-98302438D02*
X207904762Y-98254819D01*
X207904762Y-98254819D02*
X208095238Y-98254819D01*
X208095238Y-98254819D02*
X208190476Y-98302438D01*
X208190476Y-98302438D02*
X208238095Y-98350057D01*
X208238095Y-98350057D02*
X208285714Y-98445295D01*
X208285714Y-98445295D02*
X208285714Y-98492914D01*
X208285714Y-98492914D02*
X208238095Y-98588152D01*
X208238095Y-98588152D02*
X208190476Y-98635771D01*
X208190476Y-98635771D02*
X208095238Y-98683390D01*
X208095238Y-98683390D02*
X207904762Y-98683390D01*
X207904762Y-98683390D02*
X207809524Y-98731009D01*
X207809524Y-98731009D02*
X207761905Y-98778628D01*
X207761905Y-98778628D02*
X207714286Y-98873866D01*
X207714286Y-98873866D02*
X207714286Y-99064342D01*
X207714286Y-99064342D02*
X207761905Y-99159580D01*
X207761905Y-99159580D02*
X207809524Y-99207200D01*
X207809524Y-99207200D02*
X207904762Y-99254819D01*
X207904762Y-99254819D02*
X208095238Y-99254819D01*
X208095238Y-99254819D02*
X208190476Y-99207200D01*
X208190476Y-99207200D02*
X208238095Y-99159580D01*
X208238095Y-99159580D02*
X208285714Y-99064342D01*
X208285714Y-99064342D02*
X208285714Y-98873866D01*
X208285714Y-98873866D02*
X208238095Y-98778628D01*
X208238095Y-98778628D02*
X208190476Y-98731009D01*
X208190476Y-98731009D02*
X208095238Y-98683390D01*
X232743333Y-90054819D02*
X232410000Y-89578628D01*
X232171905Y-90054819D02*
X232171905Y-89054819D01*
X232171905Y-89054819D02*
X232552857Y-89054819D01*
X232552857Y-89054819D02*
X232648095Y-89102438D01*
X232648095Y-89102438D02*
X232695714Y-89150057D01*
X232695714Y-89150057D02*
X232743333Y-89245295D01*
X232743333Y-89245295D02*
X232743333Y-89388152D01*
X232743333Y-89388152D02*
X232695714Y-89483390D01*
X232695714Y-89483390D02*
X232648095Y-89531009D01*
X232648095Y-89531009D02*
X232552857Y-89578628D01*
X232552857Y-89578628D02*
X232171905Y-89578628D01*
X233076667Y-89054819D02*
X233743333Y-89054819D01*
X233743333Y-89054819D02*
X233314762Y-90054819D01*
X232495832Y-94054819D02*
X232162499Y-93578628D01*
X231924404Y-94054819D02*
X231924404Y-93054819D01*
X231924404Y-93054819D02*
X232305356Y-93054819D01*
X232305356Y-93054819D02*
X232400594Y-93102438D01*
X232400594Y-93102438D02*
X232448213Y-93150057D01*
X232448213Y-93150057D02*
X232495832Y-93245295D01*
X232495832Y-93245295D02*
X232495832Y-93388152D01*
X232495832Y-93388152D02*
X232448213Y-93483390D01*
X232448213Y-93483390D02*
X232400594Y-93531009D01*
X232400594Y-93531009D02*
X232305356Y-93578628D01*
X232305356Y-93578628D02*
X231924404Y-93578628D01*
X233352975Y-93054819D02*
X233162499Y-93054819D01*
X233162499Y-93054819D02*
X233067261Y-93102438D01*
X233067261Y-93102438D02*
X233019642Y-93150057D01*
X233019642Y-93150057D02*
X232924404Y-93292914D01*
X232924404Y-93292914D02*
X232876785Y-93483390D01*
X232876785Y-93483390D02*
X232876785Y-93864342D01*
X232876785Y-93864342D02*
X232924404Y-93959580D01*
X232924404Y-93959580D02*
X232972023Y-94007200D01*
X232972023Y-94007200D02*
X233067261Y-94054819D01*
X233067261Y-94054819D02*
X233257737Y-94054819D01*
X233257737Y-94054819D02*
X233352975Y-94007200D01*
X233352975Y-94007200D02*
X233400594Y-93959580D01*
X233400594Y-93959580D02*
X233448213Y-93864342D01*
X233448213Y-93864342D02*
X233448213Y-93626247D01*
X233448213Y-93626247D02*
X233400594Y-93531009D01*
X233400594Y-93531009D02*
X233352975Y-93483390D01*
X233352975Y-93483390D02*
X233257737Y-93435771D01*
X233257737Y-93435771D02*
X233067261Y-93435771D01*
X233067261Y-93435771D02*
X232972023Y-93483390D01*
X232972023Y-93483390D02*
X232924404Y-93531009D01*
X232924404Y-93531009D02*
X232876785Y-93626247D01*
X226533333Y-101154819D02*
X226200000Y-100678628D01*
X225961905Y-101154819D02*
X225961905Y-100154819D01*
X225961905Y-100154819D02*
X226342857Y-100154819D01*
X226342857Y-100154819D02*
X226438095Y-100202438D01*
X226438095Y-100202438D02*
X226485714Y-100250057D01*
X226485714Y-100250057D02*
X226533333Y-100345295D01*
X226533333Y-100345295D02*
X226533333Y-100488152D01*
X226533333Y-100488152D02*
X226485714Y-100583390D01*
X226485714Y-100583390D02*
X226438095Y-100631009D01*
X226438095Y-100631009D02*
X226342857Y-100678628D01*
X226342857Y-100678628D02*
X225961905Y-100678628D01*
X227438095Y-100154819D02*
X226961905Y-100154819D01*
X226961905Y-100154819D02*
X226914286Y-100631009D01*
X226914286Y-100631009D02*
X226961905Y-100583390D01*
X226961905Y-100583390D02*
X227057143Y-100535771D01*
X227057143Y-100535771D02*
X227295238Y-100535771D01*
X227295238Y-100535771D02*
X227390476Y-100583390D01*
X227390476Y-100583390D02*
X227438095Y-100631009D01*
X227438095Y-100631009D02*
X227485714Y-100726247D01*
X227485714Y-100726247D02*
X227485714Y-100964342D01*
X227485714Y-100964342D02*
X227438095Y-101059580D01*
X227438095Y-101059580D02*
X227390476Y-101107200D01*
X227390476Y-101107200D02*
X227295238Y-101154819D01*
X227295238Y-101154819D02*
X227057143Y-101154819D01*
X227057143Y-101154819D02*
X226961905Y-101107200D01*
X226961905Y-101107200D02*
X226914286Y-101059580D01*
X216133333Y-101784819D02*
X215800000Y-101308628D01*
X215561905Y-101784819D02*
X215561905Y-100784819D01*
X215561905Y-100784819D02*
X215942857Y-100784819D01*
X215942857Y-100784819D02*
X216038095Y-100832438D01*
X216038095Y-100832438D02*
X216085714Y-100880057D01*
X216085714Y-100880057D02*
X216133333Y-100975295D01*
X216133333Y-100975295D02*
X216133333Y-101118152D01*
X216133333Y-101118152D02*
X216085714Y-101213390D01*
X216085714Y-101213390D02*
X216038095Y-101261009D01*
X216038095Y-101261009D02*
X215942857Y-101308628D01*
X215942857Y-101308628D02*
X215561905Y-101308628D01*
X216990476Y-101118152D02*
X216990476Y-101784819D01*
X216752381Y-100737200D02*
X216514286Y-101451485D01*
X216514286Y-101451485D02*
X217133333Y-101451485D01*
X222333333Y-115284819D02*
X222000000Y-114808628D01*
X221761905Y-115284819D02*
X221761905Y-114284819D01*
X221761905Y-114284819D02*
X222142857Y-114284819D01*
X222142857Y-114284819D02*
X222238095Y-114332438D01*
X222238095Y-114332438D02*
X222285714Y-114380057D01*
X222285714Y-114380057D02*
X222333333Y-114475295D01*
X222333333Y-114475295D02*
X222333333Y-114618152D01*
X222333333Y-114618152D02*
X222285714Y-114713390D01*
X222285714Y-114713390D02*
X222238095Y-114761009D01*
X222238095Y-114761009D02*
X222142857Y-114808628D01*
X222142857Y-114808628D02*
X221761905Y-114808628D01*
X222666667Y-114284819D02*
X223285714Y-114284819D01*
X223285714Y-114284819D02*
X222952381Y-114665771D01*
X222952381Y-114665771D02*
X223095238Y-114665771D01*
X223095238Y-114665771D02*
X223190476Y-114713390D01*
X223190476Y-114713390D02*
X223238095Y-114761009D01*
X223238095Y-114761009D02*
X223285714Y-114856247D01*
X223285714Y-114856247D02*
X223285714Y-115094342D01*
X223285714Y-115094342D02*
X223238095Y-115189580D01*
X223238095Y-115189580D02*
X223190476Y-115237200D01*
X223190476Y-115237200D02*
X223095238Y-115284819D01*
X223095238Y-115284819D02*
X222809524Y-115284819D01*
X222809524Y-115284819D02*
X222714286Y-115237200D01*
X222714286Y-115237200D02*
X222666667Y-115189580D01*
X215133333Y-116454819D02*
X214800000Y-115978628D01*
X214561905Y-116454819D02*
X214561905Y-115454819D01*
X214561905Y-115454819D02*
X214942857Y-115454819D01*
X214942857Y-115454819D02*
X215038095Y-115502438D01*
X215038095Y-115502438D02*
X215085714Y-115550057D01*
X215085714Y-115550057D02*
X215133333Y-115645295D01*
X215133333Y-115645295D02*
X215133333Y-115788152D01*
X215133333Y-115788152D02*
X215085714Y-115883390D01*
X215085714Y-115883390D02*
X215038095Y-115931009D01*
X215038095Y-115931009D02*
X214942857Y-115978628D01*
X214942857Y-115978628D02*
X214561905Y-115978628D01*
X215514286Y-115550057D02*
X215561905Y-115502438D01*
X215561905Y-115502438D02*
X215657143Y-115454819D01*
X215657143Y-115454819D02*
X215895238Y-115454819D01*
X215895238Y-115454819D02*
X215990476Y-115502438D01*
X215990476Y-115502438D02*
X216038095Y-115550057D01*
X216038095Y-115550057D02*
X216085714Y-115645295D01*
X216085714Y-115645295D02*
X216085714Y-115740533D01*
X216085714Y-115740533D02*
X216038095Y-115883390D01*
X216038095Y-115883390D02*
X215466667Y-116454819D01*
X215466667Y-116454819D02*
X216085714Y-116454819D01*
X221833333Y-117484819D02*
X221500000Y-117008628D01*
X221261905Y-117484819D02*
X221261905Y-116484819D01*
X221261905Y-116484819D02*
X221642857Y-116484819D01*
X221642857Y-116484819D02*
X221738095Y-116532438D01*
X221738095Y-116532438D02*
X221785714Y-116580057D01*
X221785714Y-116580057D02*
X221833333Y-116675295D01*
X221833333Y-116675295D02*
X221833333Y-116818152D01*
X221833333Y-116818152D02*
X221785714Y-116913390D01*
X221785714Y-116913390D02*
X221738095Y-116961009D01*
X221738095Y-116961009D02*
X221642857Y-117008628D01*
X221642857Y-117008628D02*
X221261905Y-117008628D01*
X222785714Y-117484819D02*
X222214286Y-117484819D01*
X222500000Y-117484819D02*
X222500000Y-116484819D01*
X222500000Y-116484819D02*
X222404762Y-116627676D01*
X222404762Y-116627676D02*
X222309524Y-116722914D01*
X222309524Y-116722914D02*
X222214286Y-116770533D01*
X217766666Y-122254819D02*
X217766666Y-122969104D01*
X217766666Y-122969104D02*
X217719047Y-123111961D01*
X217719047Y-123111961D02*
X217623809Y-123207200D01*
X217623809Y-123207200D02*
X217480952Y-123254819D01*
X217480952Y-123254819D02*
X217385714Y-123254819D01*
X218766666Y-123254819D02*
X218195238Y-123254819D01*
X218480952Y-123254819D02*
X218480952Y-122254819D01*
X218480952Y-122254819D02*
X218385714Y-122397676D01*
X218385714Y-122397676D02*
X218290476Y-122492914D01*
X218290476Y-122492914D02*
X218195238Y-122540533D01*
X232371905Y-88254819D02*
X232371905Y-87254819D01*
X232371905Y-87254819D02*
X232610000Y-87254819D01*
X232610000Y-87254819D02*
X232752857Y-87302438D01*
X232752857Y-87302438D02*
X232848095Y-87397676D01*
X232848095Y-87397676D02*
X232895714Y-87492914D01*
X232895714Y-87492914D02*
X232943333Y-87683390D01*
X232943333Y-87683390D02*
X232943333Y-87826247D01*
X232943333Y-87826247D02*
X232895714Y-88016723D01*
X232895714Y-88016723D02*
X232848095Y-88111961D01*
X232848095Y-88111961D02*
X232752857Y-88207200D01*
X232752857Y-88207200D02*
X232610000Y-88254819D01*
X232610000Y-88254819D02*
X232371905Y-88254819D01*
X233276667Y-87254819D02*
X233895714Y-87254819D01*
X233895714Y-87254819D02*
X233562381Y-87635771D01*
X233562381Y-87635771D02*
X233705238Y-87635771D01*
X233705238Y-87635771D02*
X233800476Y-87683390D01*
X233800476Y-87683390D02*
X233848095Y-87731009D01*
X233848095Y-87731009D02*
X233895714Y-87826247D01*
X233895714Y-87826247D02*
X233895714Y-88064342D01*
X233895714Y-88064342D02*
X233848095Y-88159580D01*
X233848095Y-88159580D02*
X233800476Y-88207200D01*
X233800476Y-88207200D02*
X233705238Y-88254819D01*
X233705238Y-88254819D02*
X233419524Y-88254819D01*
X233419524Y-88254819D02*
X233324286Y-88207200D01*
X233324286Y-88207200D02*
X233276667Y-88159580D01*
X232224404Y-92354819D02*
X232224404Y-91354819D01*
X232224404Y-91354819D02*
X232462499Y-91354819D01*
X232462499Y-91354819D02*
X232605356Y-91402438D01*
X232605356Y-91402438D02*
X232700594Y-91497676D01*
X232700594Y-91497676D02*
X232748213Y-91592914D01*
X232748213Y-91592914D02*
X232795832Y-91783390D01*
X232795832Y-91783390D02*
X232795832Y-91926247D01*
X232795832Y-91926247D02*
X232748213Y-92116723D01*
X232748213Y-92116723D02*
X232700594Y-92211961D01*
X232700594Y-92211961D02*
X232605356Y-92307200D01*
X232605356Y-92307200D02*
X232462499Y-92354819D01*
X232462499Y-92354819D02*
X232224404Y-92354819D01*
X233176785Y-91450057D02*
X233224404Y-91402438D01*
X233224404Y-91402438D02*
X233319642Y-91354819D01*
X233319642Y-91354819D02*
X233557737Y-91354819D01*
X233557737Y-91354819D02*
X233652975Y-91402438D01*
X233652975Y-91402438D02*
X233700594Y-91450057D01*
X233700594Y-91450057D02*
X233748213Y-91545295D01*
X233748213Y-91545295D02*
X233748213Y-91640533D01*
X233748213Y-91640533D02*
X233700594Y-91783390D01*
X233700594Y-91783390D02*
X233129166Y-92354819D01*
X233129166Y-92354819D02*
X233748213Y-92354819D01*
X212761905Y-119354819D02*
X212761905Y-118354819D01*
X212761905Y-118354819D02*
X213000000Y-118354819D01*
X213000000Y-118354819D02*
X213142857Y-118402438D01*
X213142857Y-118402438D02*
X213238095Y-118497676D01*
X213238095Y-118497676D02*
X213285714Y-118592914D01*
X213285714Y-118592914D02*
X213333333Y-118783390D01*
X213333333Y-118783390D02*
X213333333Y-118926247D01*
X213333333Y-118926247D02*
X213285714Y-119116723D01*
X213285714Y-119116723D02*
X213238095Y-119211961D01*
X213238095Y-119211961D02*
X213142857Y-119307200D01*
X213142857Y-119307200D02*
X213000000Y-119354819D01*
X213000000Y-119354819D02*
X212761905Y-119354819D01*
X214285714Y-119354819D02*
X213714286Y-119354819D01*
X214000000Y-119354819D02*
X214000000Y-118354819D01*
X214000000Y-118354819D02*
X213904762Y-118497676D01*
X213904762Y-118497676D02*
X213809524Y-118592914D01*
X213809524Y-118592914D02*
X213714286Y-118640533D01*
X207533333Y-90859580D02*
X207485714Y-90907200D01*
X207485714Y-90907200D02*
X207342857Y-90954819D01*
X207342857Y-90954819D02*
X207247619Y-90954819D01*
X207247619Y-90954819D02*
X207104762Y-90907200D01*
X207104762Y-90907200D02*
X207009524Y-90811961D01*
X207009524Y-90811961D02*
X206961905Y-90716723D01*
X206961905Y-90716723D02*
X206914286Y-90526247D01*
X206914286Y-90526247D02*
X206914286Y-90383390D01*
X206914286Y-90383390D02*
X206961905Y-90192914D01*
X206961905Y-90192914D02*
X207009524Y-90097676D01*
X207009524Y-90097676D02*
X207104762Y-90002438D01*
X207104762Y-90002438D02*
X207247619Y-89954819D01*
X207247619Y-89954819D02*
X207342857Y-89954819D01*
X207342857Y-89954819D02*
X207485714Y-90002438D01*
X207485714Y-90002438D02*
X207533333Y-90050057D01*
X207866667Y-89954819D02*
X208533333Y-89954819D01*
X208533333Y-89954819D02*
X208104762Y-90954819D01*
X208933333Y-88359580D02*
X208885714Y-88407200D01*
X208885714Y-88407200D02*
X208742857Y-88454819D01*
X208742857Y-88454819D02*
X208647619Y-88454819D01*
X208647619Y-88454819D02*
X208504762Y-88407200D01*
X208504762Y-88407200D02*
X208409524Y-88311961D01*
X208409524Y-88311961D02*
X208361905Y-88216723D01*
X208361905Y-88216723D02*
X208314286Y-88026247D01*
X208314286Y-88026247D02*
X208314286Y-87883390D01*
X208314286Y-87883390D02*
X208361905Y-87692914D01*
X208361905Y-87692914D02*
X208409524Y-87597676D01*
X208409524Y-87597676D02*
X208504762Y-87502438D01*
X208504762Y-87502438D02*
X208647619Y-87454819D01*
X208647619Y-87454819D02*
X208742857Y-87454819D01*
X208742857Y-87454819D02*
X208885714Y-87502438D01*
X208885714Y-87502438D02*
X208933333Y-87550057D01*
X209790476Y-87454819D02*
X209600000Y-87454819D01*
X209600000Y-87454819D02*
X209504762Y-87502438D01*
X209504762Y-87502438D02*
X209457143Y-87550057D01*
X209457143Y-87550057D02*
X209361905Y-87692914D01*
X209361905Y-87692914D02*
X209314286Y-87883390D01*
X209314286Y-87883390D02*
X209314286Y-88264342D01*
X209314286Y-88264342D02*
X209361905Y-88359580D01*
X209361905Y-88359580D02*
X209409524Y-88407200D01*
X209409524Y-88407200D02*
X209504762Y-88454819D01*
X209504762Y-88454819D02*
X209695238Y-88454819D01*
X209695238Y-88454819D02*
X209790476Y-88407200D01*
X209790476Y-88407200D02*
X209838095Y-88359580D01*
X209838095Y-88359580D02*
X209885714Y-88264342D01*
X209885714Y-88264342D02*
X209885714Y-88026247D01*
X209885714Y-88026247D02*
X209838095Y-87931009D01*
X209838095Y-87931009D02*
X209790476Y-87883390D01*
X209790476Y-87883390D02*
X209695238Y-87835771D01*
X209695238Y-87835771D02*
X209504762Y-87835771D01*
X209504762Y-87835771D02*
X209409524Y-87883390D01*
X209409524Y-87883390D02*
X209361905Y-87931009D01*
X209361905Y-87931009D02*
X209314286Y-88026247D01*
X207333333Y-100459580D02*
X207285714Y-100507200D01*
X207285714Y-100507200D02*
X207142857Y-100554819D01*
X207142857Y-100554819D02*
X207047619Y-100554819D01*
X207047619Y-100554819D02*
X206904762Y-100507200D01*
X206904762Y-100507200D02*
X206809524Y-100411961D01*
X206809524Y-100411961D02*
X206761905Y-100316723D01*
X206761905Y-100316723D02*
X206714286Y-100126247D01*
X206714286Y-100126247D02*
X206714286Y-99983390D01*
X206714286Y-99983390D02*
X206761905Y-99792914D01*
X206761905Y-99792914D02*
X206809524Y-99697676D01*
X206809524Y-99697676D02*
X206904762Y-99602438D01*
X206904762Y-99602438D02*
X207047619Y-99554819D01*
X207047619Y-99554819D02*
X207142857Y-99554819D01*
X207142857Y-99554819D02*
X207285714Y-99602438D01*
X207285714Y-99602438D02*
X207333333Y-99650057D01*
X208238095Y-99554819D02*
X207761905Y-99554819D01*
X207761905Y-99554819D02*
X207714286Y-100031009D01*
X207714286Y-100031009D02*
X207761905Y-99983390D01*
X207761905Y-99983390D02*
X207857143Y-99935771D01*
X207857143Y-99935771D02*
X208095238Y-99935771D01*
X208095238Y-99935771D02*
X208190476Y-99983390D01*
X208190476Y-99983390D02*
X208238095Y-100031009D01*
X208238095Y-100031009D02*
X208285714Y-100126247D01*
X208285714Y-100126247D02*
X208285714Y-100364342D01*
X208285714Y-100364342D02*
X208238095Y-100459580D01*
X208238095Y-100459580D02*
X208190476Y-100507200D01*
X208190476Y-100507200D02*
X208095238Y-100554819D01*
X208095238Y-100554819D02*
X207857143Y-100554819D01*
X207857143Y-100554819D02*
X207761905Y-100507200D01*
X207761905Y-100507200D02*
X207714286Y-100459580D01*
X228233333Y-106719580D02*
X228185714Y-106767200D01*
X228185714Y-106767200D02*
X228042857Y-106814819D01*
X228042857Y-106814819D02*
X227947619Y-106814819D01*
X227947619Y-106814819D02*
X227804762Y-106767200D01*
X227804762Y-106767200D02*
X227709524Y-106671961D01*
X227709524Y-106671961D02*
X227661905Y-106576723D01*
X227661905Y-106576723D02*
X227614286Y-106386247D01*
X227614286Y-106386247D02*
X227614286Y-106243390D01*
X227614286Y-106243390D02*
X227661905Y-106052914D01*
X227661905Y-106052914D02*
X227709524Y-105957676D01*
X227709524Y-105957676D02*
X227804762Y-105862438D01*
X227804762Y-105862438D02*
X227947619Y-105814819D01*
X227947619Y-105814819D02*
X228042857Y-105814819D01*
X228042857Y-105814819D02*
X228185714Y-105862438D01*
X228185714Y-105862438D02*
X228233333Y-105910057D01*
X229090476Y-106148152D02*
X229090476Y-106814819D01*
X228852381Y-105767200D02*
X228614286Y-106481485D01*
X228614286Y-106481485D02*
X229233333Y-106481485D01*
X214833333Y-108519580D02*
X214785714Y-108567200D01*
X214785714Y-108567200D02*
X214642857Y-108614819D01*
X214642857Y-108614819D02*
X214547619Y-108614819D01*
X214547619Y-108614819D02*
X214404762Y-108567200D01*
X214404762Y-108567200D02*
X214309524Y-108471961D01*
X214309524Y-108471961D02*
X214261905Y-108376723D01*
X214261905Y-108376723D02*
X214214286Y-108186247D01*
X214214286Y-108186247D02*
X214214286Y-108043390D01*
X214214286Y-108043390D02*
X214261905Y-107852914D01*
X214261905Y-107852914D02*
X214309524Y-107757676D01*
X214309524Y-107757676D02*
X214404762Y-107662438D01*
X214404762Y-107662438D02*
X214547619Y-107614819D01*
X214547619Y-107614819D02*
X214642857Y-107614819D01*
X214642857Y-107614819D02*
X214785714Y-107662438D01*
X214785714Y-107662438D02*
X214833333Y-107710057D01*
X215166667Y-107614819D02*
X215785714Y-107614819D01*
X215785714Y-107614819D02*
X215452381Y-107995771D01*
X215452381Y-107995771D02*
X215595238Y-107995771D01*
X215595238Y-107995771D02*
X215690476Y-108043390D01*
X215690476Y-108043390D02*
X215738095Y-108091009D01*
X215738095Y-108091009D02*
X215785714Y-108186247D01*
X215785714Y-108186247D02*
X215785714Y-108424342D01*
X215785714Y-108424342D02*
X215738095Y-108519580D01*
X215738095Y-108519580D02*
X215690476Y-108567200D01*
X215690476Y-108567200D02*
X215595238Y-108614819D01*
X215595238Y-108614819D02*
X215309524Y-108614819D01*
X215309524Y-108614819D02*
X215214286Y-108567200D01*
X215214286Y-108567200D02*
X215166667Y-108519580D01*
X223033333Y-112979580D02*
X222985714Y-113027200D01*
X222985714Y-113027200D02*
X222842857Y-113074819D01*
X222842857Y-113074819D02*
X222747619Y-113074819D01*
X222747619Y-113074819D02*
X222604762Y-113027200D01*
X222604762Y-113027200D02*
X222509524Y-112931961D01*
X222509524Y-112931961D02*
X222461905Y-112836723D01*
X222461905Y-112836723D02*
X222414286Y-112646247D01*
X222414286Y-112646247D02*
X222414286Y-112503390D01*
X222414286Y-112503390D02*
X222461905Y-112312914D01*
X222461905Y-112312914D02*
X222509524Y-112217676D01*
X222509524Y-112217676D02*
X222604762Y-112122438D01*
X222604762Y-112122438D02*
X222747619Y-112074819D01*
X222747619Y-112074819D02*
X222842857Y-112074819D01*
X222842857Y-112074819D02*
X222985714Y-112122438D01*
X222985714Y-112122438D02*
X223033333Y-112170057D01*
X223985714Y-113074819D02*
X223414286Y-113074819D01*
X223700000Y-113074819D02*
X223700000Y-112074819D01*
X223700000Y-112074819D02*
X223604762Y-112217676D01*
X223604762Y-112217676D02*
X223509524Y-112312914D01*
X223509524Y-112312914D02*
X223414286Y-112360533D01*
X230531009Y-100333333D02*
X230578628Y-100190476D01*
X230578628Y-100190476D02*
X230626247Y-100142857D01*
X230626247Y-100142857D02*
X230721485Y-100095238D01*
X230721485Y-100095238D02*
X230864342Y-100095238D01*
X230864342Y-100095238D02*
X230959580Y-100142857D01*
X230959580Y-100142857D02*
X231007200Y-100190476D01*
X231007200Y-100190476D02*
X231054819Y-100285714D01*
X231054819Y-100285714D02*
X231054819Y-100666666D01*
X231054819Y-100666666D02*
X230054819Y-100666666D01*
X230054819Y-100666666D02*
X230054819Y-100333333D01*
X230054819Y-100333333D02*
X230102438Y-100238095D01*
X230102438Y-100238095D02*
X230150057Y-100190476D01*
X230150057Y-100190476D02*
X230245295Y-100142857D01*
X230245295Y-100142857D02*
X230340533Y-100142857D01*
X230340533Y-100142857D02*
X230435771Y-100190476D01*
X230435771Y-100190476D02*
X230483390Y-100238095D01*
X230483390Y-100238095D02*
X230531009Y-100333333D01*
X230531009Y-100333333D02*
X230531009Y-100666666D01*
X230054819Y-99476190D02*
X230054819Y-99285714D01*
X230054819Y-99285714D02*
X230102438Y-99190476D01*
X230102438Y-99190476D02*
X230197676Y-99095238D01*
X230197676Y-99095238D02*
X230388152Y-99047619D01*
X230388152Y-99047619D02*
X230721485Y-99047619D01*
X230721485Y-99047619D02*
X230911961Y-99095238D01*
X230911961Y-99095238D02*
X231007200Y-99190476D01*
X231007200Y-99190476D02*
X231054819Y-99285714D01*
X231054819Y-99285714D02*
X231054819Y-99476190D01*
X231054819Y-99476190D02*
X231007200Y-99571428D01*
X231007200Y-99571428D02*
X230911961Y-99666666D01*
X230911961Y-99666666D02*
X230721485Y-99714285D01*
X230721485Y-99714285D02*
X230388152Y-99714285D01*
X230388152Y-99714285D02*
X230197676Y-99666666D01*
X230197676Y-99666666D02*
X230102438Y-99571428D01*
X230102438Y-99571428D02*
X230054819Y-99476190D01*
X230054819Y-98428571D02*
X230054819Y-98238095D01*
X230054819Y-98238095D02*
X230102438Y-98142857D01*
X230102438Y-98142857D02*
X230197676Y-98047619D01*
X230197676Y-98047619D02*
X230388152Y-98000000D01*
X230388152Y-98000000D02*
X230721485Y-98000000D01*
X230721485Y-98000000D02*
X230911961Y-98047619D01*
X230911961Y-98047619D02*
X231007200Y-98142857D01*
X231007200Y-98142857D02*
X231054819Y-98238095D01*
X231054819Y-98238095D02*
X231054819Y-98428571D01*
X231054819Y-98428571D02*
X231007200Y-98523809D01*
X231007200Y-98523809D02*
X230911961Y-98619047D01*
X230911961Y-98619047D02*
X230721485Y-98666666D01*
X230721485Y-98666666D02*
X230388152Y-98666666D01*
X230388152Y-98666666D02*
X230197676Y-98619047D01*
X230197676Y-98619047D02*
X230102438Y-98523809D01*
X230102438Y-98523809D02*
X230054819Y-98428571D01*
X230054819Y-97714285D02*
X230054819Y-97142857D01*
X231054819Y-97428571D02*
X230054819Y-97428571D01*
X231054819Y-96285714D02*
X231054819Y-96857142D01*
X231054819Y-96571428D02*
X230054819Y-96571428D01*
X230054819Y-96571428D02*
X230197676Y-96666666D01*
X230197676Y-96666666D02*
X230292914Y-96761904D01*
X230292914Y-96761904D02*
X230340533Y-96857142D01*
%TO.C,J3*%
D11*
X204680000Y-104480000D02*
X204680000Y-122370000D01*
X201920000Y-122370000D02*
X204680000Y-122370000D01*
X201920000Y-104480000D02*
X204680000Y-104480000D01*
X201920000Y-104480000D02*
X201920000Y-122370000D01*
X201920000Y-103210000D02*
X201920000Y-101830000D01*
X201920000Y-101830000D02*
X203300000Y-101830000D01*
%TO.C,J2*%
X234480000Y-104480000D02*
X234480000Y-122370000D01*
X231720000Y-122370000D02*
X234480000Y-122370000D01*
X231720000Y-104480000D02*
X234480000Y-104480000D01*
X231720000Y-104480000D02*
X231720000Y-122370000D01*
X231720000Y-103210000D02*
X231720000Y-101830000D01*
X231720000Y-101830000D02*
X233100000Y-101830000D01*
%TO.C,C2*%
X222938748Y-108835000D02*
X223461252Y-108835000D01*
X222938748Y-107365000D02*
X223461252Y-107365000D01*
%TO.C,USRBUTTON1*%
X213250000Y-103400000D02*
X216550000Y-103400000D01*
X213250000Y-103700000D02*
X213250000Y-103400000D01*
X213250000Y-105900000D02*
X213250000Y-106200000D01*
X213250000Y-106200000D02*
X216550000Y-106200000D01*
X216550000Y-103400000D02*
X216550000Y-103700000D01*
X216550000Y-106200000D02*
X216550000Y-105900000D01*
%TO.C,U3*%
X212300000Y-96300000D02*
X212300000Y-97100000D01*
X212300000Y-97100000D02*
X213100000Y-97100000D01*
X212500000Y-80300000D02*
X225700000Y-80300000D01*
X212500000Y-85700000D02*
X225700000Y-85700000D01*
X212500000Y-96900000D02*
X212500000Y-80300000D01*
X213175000Y-80100000D02*
X212325000Y-80100000D01*
X225150000Y-80100000D02*
X225900000Y-80100000D01*
X225700000Y-80300000D02*
X225700000Y-96900000D01*
X225700000Y-96900000D02*
X212500000Y-96900000D01*
X225900000Y-80100000D02*
X225900000Y-80700000D01*
X225900000Y-96300000D02*
X225900000Y-97100000D01*
X225900000Y-97100000D02*
X225100000Y-97100000D01*
%TO.C,U2*%
X217040000Y-118410000D02*
X217040000Y-116590000D01*
X217090000Y-118410000D02*
X217040000Y-118410000D01*
X220160000Y-118410000D02*
X220110000Y-118410000D01*
X217040000Y-116590000D02*
X217090000Y-116590000D01*
X220110000Y-116590000D02*
X220160000Y-116590000D01*
X220160000Y-116590000D02*
X220160000Y-118410000D01*
X217090000Y-118950000D02*
X216760000Y-119190000D01*
X216760000Y-118710000D01*
X217090000Y-118950000D01*
G36*
X217090000Y-118950000D02*
G01*
X216760000Y-119190000D01*
X216760000Y-118710000D01*
X217090000Y-118950000D01*
G37*
%TO.C,U1*%
X221440000Y-112110000D02*
X221440000Y-110290000D01*
X221490000Y-112110000D02*
X221440000Y-112110000D01*
X224560000Y-112110000D02*
X224510000Y-112110000D01*
X221440000Y-110290000D02*
X221490000Y-110290000D01*
X222610000Y-110290000D02*
X223390000Y-110290000D01*
X224510000Y-110290000D02*
X224560000Y-110290000D01*
X224560000Y-110290000D02*
X224560000Y-112110000D01*
X221490000Y-112650000D02*
X221160000Y-112890000D01*
X221160000Y-112410000D01*
X221490000Y-112650000D01*
G36*
X221490000Y-112650000D02*
G01*
X221160000Y-112890000D01*
X221160000Y-112410000D01*
X221490000Y-112650000D01*
G37*
%TO.C,RESET1*%
X205350000Y-95000000D02*
X208650000Y-95000000D01*
X205350000Y-95300000D02*
X205350000Y-95000000D01*
X205350000Y-97500000D02*
X205350000Y-97800000D01*
X205350000Y-97800000D02*
X208650000Y-97800000D01*
X208650000Y-95000000D02*
X208650000Y-95300000D01*
X208650000Y-97800000D02*
X208650000Y-97500000D01*
%TO.C,R10*%
X222120000Y-98253641D02*
X222120000Y-97946359D01*
X222880000Y-98253641D02*
X222880000Y-97946359D01*
%TO.C,R9*%
X210746359Y-91920000D02*
X211053641Y-91920000D01*
X210746359Y-92680000D02*
X211053641Y-92680000D01*
%TO.C,R8*%
X209553641Y-98320000D02*
X209246359Y-98320000D01*
X209553641Y-99080000D02*
X209246359Y-99080000D01*
%TO.C,R7*%
X230656359Y-89020000D02*
X230963641Y-89020000D01*
X230656359Y-89780000D02*
X230963641Y-89780000D01*
%TO.C,R6*%
X230498858Y-93120000D02*
X230806140Y-93120000D01*
X230498858Y-93880000D02*
X230806140Y-93880000D01*
%TO.C,R5*%
X228446359Y-100320000D02*
X228753641Y-100320000D01*
X228446359Y-101080000D02*
X228753641Y-101080000D01*
%TO.C,R4*%
X216146359Y-102120000D02*
X216453641Y-102120000D01*
X216146359Y-102880000D02*
X216453641Y-102880000D01*
%TO.C,R3*%
X222346359Y-115620000D02*
X222653641Y-115620000D01*
X222346359Y-116380000D02*
X222653641Y-116380000D01*
%TO.C,R2*%
X215453641Y-117580000D02*
X215146359Y-117580000D01*
X215453641Y-116820000D02*
X215146359Y-116820000D01*
%TO.C,R1*%
X221846359Y-117820000D02*
X222153641Y-117820000D01*
X221846359Y-118580000D02*
X222153641Y-118580000D01*
%TO.C,J1*%
X213420000Y-122550000D02*
X213420000Y-124470000D01*
X213420000Y-128185000D02*
X213420000Y-126480000D01*
X222580000Y-124470000D02*
X222580000Y-122550000D01*
X222580000Y-126480000D02*
X222580000Y-128185000D01*
X222580000Y-128185000D02*
X213420000Y-128185000D01*
%TO.C,D3*%
X228762500Y-86840000D02*
X228762500Y-88760000D01*
X228762500Y-88760000D02*
X231447500Y-88760000D01*
X231447500Y-86840000D02*
X228762500Y-86840000D01*
%TO.C,D2*%
X228715001Y-90940000D02*
X228715001Y-92860000D01*
X228715001Y-92860000D02*
X231400000Y-92860000D01*
X231400000Y-90940000D02*
X228715001Y-90940000D01*
%TO.C,D1*%
X216010000Y-119510001D02*
X216010000Y-118289999D01*
X216010000Y-119510001D02*
X214700000Y-119510001D01*
X216010000Y-118289999D02*
X214700000Y-118289999D01*
%TO.C,C7*%
X210761253Y-91235000D02*
X210238747Y-91235000D01*
X210761253Y-89765000D02*
X210238747Y-89765000D01*
%TO.C,C6*%
X211407836Y-89360000D02*
X211192164Y-89360000D01*
X211407836Y-88640000D02*
X211192164Y-88640000D01*
%TO.C,C5*%
X209292164Y-99340000D02*
X209507836Y-99340000D01*
X209292164Y-100060000D02*
X209507836Y-100060000D01*
%TO.C,C4*%
X228507836Y-105560000D02*
X228292164Y-105560000D01*
X228507836Y-104840000D02*
X228292164Y-104840000D01*
%TO.C,C3*%
X215107836Y-107360000D02*
X214892164Y-107360000D01*
X215107836Y-106640000D02*
X214892164Y-106640000D01*
%TO.C,C1*%
X222938748Y-113565000D02*
X223461252Y-113565000D01*
X222938748Y-115035000D02*
X223461252Y-115035000D01*
%TO.C,BOOT1*%
X226650000Y-101600000D02*
X229950000Y-101600000D01*
X226650000Y-101900000D02*
X226650000Y-101600000D01*
X226650000Y-104100000D02*
X226650000Y-104400000D01*
X226650000Y-104400000D02*
X229950000Y-104400000D01*
X229950000Y-101600000D02*
X229950000Y-101900000D01*
X229950000Y-104400000D02*
X229950000Y-104100000D01*
%TD*%
M02*
