M48
; DRILL file KiCad 10.0.3 date 2026-09-30T07:43:23
; FORMAT={-:-/ absolute / metric / decimal}
; #@! TF.CreationDate,2026-09-30T07:43:23+02:00
; #@! TF.GenerationSoftware,Kicad,Pcbnew,10.0.3
; #@! TF.FileFunction,Plated,1,4,PTH
FMAT,2
METRIC
; #@! TA.AperFunction,Plated,PTH,ViaDrill
T1C0.400
; #@! TA.AperFunction,Plated,PTH,ComponentDrill
T2C0.600
; #@! TA.AperFunction,Plated,PTH,ComponentDrill
T3C1.000
%
G90
G05
T1
X204.3Y-96.4
X205.3Y-108.2
X205.3Y-114.5
X205.4Y-103.2
X205.4Y-105.7
X205.5Y-116.4
X205.7Y-118.5
X205.7Y-121.0
X209.5Y-89.1
X209.9Y-100.5
X210.3Y-93.2
X210.8Y-88.2
X210.8Y-98.7
X211.9Y-86.4
X211.9Y-87.3
X211.9Y-88.1
X212.0Y-95.3
X212.0Y-96.3
X213.2Y-103.0
X213.6Y-107.3
X214.0Y-117.2
X214.0Y-118.9
X214.1Y-88.9
X214.1Y-98.2
X214.3Y-87.0
X214.359Y-122.245
X214.4Y-124.6
X214.9Y-102.4
X215.1Y-87.0
X215.1Y-91.4
X215.1Y-99.4
X215.9Y-87.0
X215.9Y-97.4
X216.0Y-118.1
X216.7Y-87.0
X217.5Y-87.0
X218.1Y-90.3
X218.1Y-92.3
X218.3Y-87.0
X218.6Y-115.2
X218.6Y-117.6
X219.057Y-97.784
X219.1Y-87.0
X219.9Y-87.0
X219.9Y-98.1
X220.1Y-90.2
X220.1Y-92.2
X220.7Y-87.0
X220.7Y-94.7
X220.889Y-119.523
X220.9Y-114.4
X221.0Y-112.8
X221.0Y-116.0
X221.1Y-108.1
X221.1Y-110.0
X221.5Y-87.0
X221.6Y-124.8
X221.653Y-122.223
X222.2Y-94.6
X222.3Y-87.0
X223.1Y-87.0
X223.1Y-111.2
X223.3Y-118.2
X223.5Y-98.6
X223.6Y-94.9
X223.8Y-91.1
X223.8Y-103.4
X223.8Y-104.5
X223.9Y-87.0
X225.3Y-103.1
X225.3Y-108.1
X225.3Y-114.2
X226.2Y-96.3
X226.3Y-86.3
X226.5Y-92.8
X227.1Y-105.4
X227.3Y-91.2
X227.4Y-109.1
X227.9Y-91.9
X228.5Y-110.6
X228.7Y-116.9
X229.0Y-99.3
X229.2Y-93.7
X229.31Y-89.6
X231.0Y-108.3
T3
X203.3Y-103.21
X203.3Y-105.75
X203.3Y-108.29
X203.3Y-110.83
X203.3Y-113.37
X203.3Y-115.91
X203.3Y-118.45
X203.3Y-120.99
X233.1Y-103.21
X233.1Y-105.75
X233.1Y-108.29
X233.1Y-110.83
X233.1Y-113.37
X233.1Y-115.91
X233.1Y-118.45
X233.1Y-120.99
T2
G00X213.68Y-120.725
M15
G01X213.68Y-121.825
M16
G05
G00X213.68Y-125.075
M15
G01X213.68Y-125.875
M16
G05
G00X222.32Y-120.725
M15
G01X222.32Y-121.825
M16
G05
G00X222.32Y-125.075
M15
G01X222.32Y-125.875
M16
G05
M30
