%TF.GenerationSoftware,KiCad,Pcbnew,10.0.3*%
%TF.CreationDate,2026-09-30T07:43:39+02:00*%
%TF.ProjectId,FRI-ESP32,4652492d-4553-4503-9332-2e6b69636164,rev?*%
%TF.SameCoordinates,Original*%
%TF.FileFunction,Copper,L1,Top*%
%TF.FilePolarity,Positive*%
%FSLAX46Y46*%
G04 Gerber Fmt 4.6, Leading zero omitted, Abs format (unit mm)*
G04 Created by KiCad (PCBNEW 10.0.3) date 2026-09-30 07:43:39*
%MOMM*%
%LPD*%
G01*
G04 APERTURE LIST*
G04 Aperture macros list*
%AMRoundRect*
0 Rectangle with rounded corners*
0 $1 Rounding radius*
0 $2 $3 $4 $5 $6 $7 $8 $9 X,Y pos of 4 corners*
0 Add a 4 corners polygon primitive as box body*
4,1,4,$2,$3,$4,$5,$6,$7,$8,$9,$2,$3,0*
0 Add four circle primitives for the rounded corners*
1,1,$1+$1,$2,$3*
1,1,$1+$1,$4,$5*
1,1,$1+$1,$6,$7*
1,1,$1+$1,$8,$9*
0 Add four rect primitives between the rounded corners*
20,1,$1+$1,$2,$3,$4,$5,0*
20,1,$1+$1,$4,$5,$6,$7,0*
20,1,$1+$1,$6,$7,$8,$9,0*
20,1,$1+$1,$8,$9,$2,$3,0*%
%AMFreePoly0*
4,1,6,0.725000,-0.725000,-0.725000,-0.725000,-0.725000,0.125000,-0.125000,0.725000,0.725000,0.725000,0.725000,-0.725000,0.725000,-0.725000,$1*%
G04 Aperture macros list end*
%TA.AperFunction,SMDPad,CuDef*%
%ADD10C,1.000000*%
%TD*%
%TA.AperFunction,ComponentPad*%
%ADD11C,1.700000*%
%TD*%
%TA.AperFunction,ComponentPad*%
%ADD12R,1.700000X1.700000*%
%TD*%
%TA.AperFunction,SMDPad,CuDef*%
%ADD13RoundRect,0.250000X-0.250000X-0.475000X0.250000X-0.475000X0.250000X0.475000X-0.250000X0.475000X0*%
%TD*%
%TA.AperFunction,SMDPad,CuDef*%
%ADD14R,0.900000X1.700000*%
%TD*%
%TA.AperFunction,SMDPad,CuDef*%
%ADD15R,0.800000X0.400000*%
%TD*%
%TA.AperFunction,SMDPad,CuDef*%
%ADD16R,0.400000X0.800000*%
%TD*%
%TA.AperFunction,SMDPad,CuDef*%
%ADD17FreePoly0,0.000000*%
%TD*%
%TA.AperFunction,SMDPad,CuDef*%
%ADD18R,1.450000X1.450000*%
%TD*%
%TA.AperFunction,SMDPad,CuDef*%
%ADD19R,0.700000X0.700000*%
%TD*%
%TA.AperFunction,SMDPad,CuDef*%
%ADD20RoundRect,0.150000X0.150000X-0.512500X0.150000X0.512500X-0.150000X0.512500X-0.150000X-0.512500X0*%
%TD*%
%TA.AperFunction,SMDPad,CuDef*%
%ADD21RoundRect,0.135000X0.185000X-0.135000X0.185000X0.135000X-0.185000X0.135000X-0.185000X-0.135000X0*%
%TD*%
%TA.AperFunction,SMDPad,CuDef*%
%ADD22RoundRect,0.135000X-0.135000X-0.185000X0.135000X-0.185000X0.135000X0.185000X-0.135000X0.185000X0*%
%TD*%
%TA.AperFunction,SMDPad,CuDef*%
%ADD23RoundRect,0.135000X0.135000X0.185000X-0.135000X0.185000X-0.135000X-0.185000X0.135000X-0.185000X0*%
%TD*%
%TA.AperFunction,SMDPad,CuDef*%
%ADD24RoundRect,0.150000X-0.150000X-0.470000X0.150000X-0.470000X0.150000X0.470000X-0.150000X0.470000X0*%
%TD*%
%TA.AperFunction,SMDPad,CuDef*%
%ADD25RoundRect,0.075000X-0.075000X-0.545000X0.075000X-0.545000X0.075000X0.545000X-0.075000X0.545000X0*%
%TD*%
%TA.AperFunction,ComponentPad*%
%ADD26O,1.000000X2.100000*%
%TD*%
%TA.AperFunction,ComponentPad*%
%ADD27O,1.000000X1.800000*%
%TD*%
%TA.AperFunction,SMDPad,CuDef*%
%ADD28RoundRect,0.243750X-0.243750X-0.456250X0.243750X-0.456250X0.243750X0.456250X-0.243750X0.456250X0*%
%TD*%
%TA.AperFunction,SMDPad,CuDef*%
%ADD29RoundRect,0.050000X0.150000X0.300000X-0.150000X0.300000X-0.150000X-0.300000X0.150000X-0.300000X0*%
%TD*%
%TA.AperFunction,SMDPad,CuDef*%
%ADD30RoundRect,0.250000X0.250000X0.475000X-0.250000X0.475000X-0.250000X-0.475000X0.250000X-0.475000X0*%
%TD*%
%TA.AperFunction,SMDPad,CuDef*%
%ADD31RoundRect,0.140000X0.140000X0.170000X-0.140000X0.170000X-0.140000X-0.170000X0.140000X-0.170000X0*%
%TD*%
%TA.AperFunction,SMDPad,CuDef*%
%ADD32RoundRect,0.140000X-0.140000X-0.170000X0.140000X-0.170000X0.140000X0.170000X-0.140000X0.170000X0*%
%TD*%
%TA.AperFunction,ViaPad*%
%ADD33C,0.700000*%
%TD*%
%TA.AperFunction,Conductor*%
%ADD34C,0.200000*%
%TD*%
%TA.AperFunction,Conductor*%
%ADD35C,0.250000*%
%TD*%
%TA.AperFunction,Conductor*%
%ADD36C,0.400000*%
%TD*%
G04 APERTURE END LIST*
D10*
%TO.P,REF\u002A\u002A,*%
%TO.N,*%
X232800000Y-126100000D03*
%TD*%
%TO.P,REF\u002A\u002A,*%
%TO.N,*%
X203400000Y-125900000D03*
%TD*%
%TO.P,REF\u002A\u002A,*%
%TO.N,*%
X203100000Y-87700000D03*
%TD*%
D11*
%TO.P,J3,8,Pin_8_8*%
%TO.N,GND*%
X203300000Y-120990000D03*
%TO.P,J3,7,Pin_7_7*%
X203300000Y-118450000D03*
%TO.P,J3,6,Pin_6_6*%
X203300000Y-115910000D03*
%TO.P,J3,5,Pin_5_5*%
X203300000Y-113370000D03*
%TO.P,J3,4,Pin_4_4*%
%TO.N,VBUS*%
X203300000Y-110830000D03*
%TO.P,J3,3,Pin_3_3*%
%TO.N,+3.3V*%
X203300000Y-108290000D03*
%TO.P,J3,2,Pin_2_2*%
X203300000Y-105750000D03*
D12*
%TO.P,J3,1,Pin_1_1*%
X203300000Y-103210000D03*
%TD*%
D11*
%TO.P,J2,8,Pin_8_8*%
%TO.N,GPIO0*%
X233100000Y-120990000D03*
%TO.P,J2,7,Pin_7_7*%
%TO.N,GPIO1*%
X233100000Y-118450000D03*
%TO.P,J2,6,Pin_6_6*%
%TO.N,GPIO3*%
X233100000Y-115910000D03*
%TO.P,J2,5,Pin_5_5*%
%TO.N,GPIO4*%
X233100000Y-113370000D03*
%TO.P,J2,4,Pin_4_4*%
%TO.N,GPIO5*%
X233100000Y-110830000D03*
%TO.P,J2,3,Pin_3_3*%
%TO.N,GND*%
X233100000Y-108290000D03*
%TO.P,J2,2,Pin_2_2*%
%TO.N,RXD*%
X233100000Y-105750000D03*
D12*
%TO.P,J2,1,Pin_1_1*%
%TO.N,TXD*%
X233100000Y-103210000D03*
%TD*%
D13*
%TO.P,C2,2*%
%TO.N,GND*%
X224150000Y-108100000D03*
%TO.P,C2,1*%
%TO.N,+3.3V*%
X222250000Y-108100000D03*
%TD*%
D14*
%TO.P,USRBUTTON1,1,1_1*%
%TO.N,GND*%
X213200000Y-104800000D03*
%TO.P,USRBUTTON1,2,2_2*%
%TO.N,USER_BTN*%
X216600000Y-104800000D03*
%TD*%
D15*
%TO.P,U3,1,GND_1*%
%TO.N,GND*%
X213200000Y-87300000D03*
%TO.P,U3,2,GND_2*%
X213200000Y-88100000D03*
%TO.P,U3,3,3V3_3*%
%TO.N,+3.3V*%
X213200000Y-88900000D03*
%TO.P,U3,4,NC_4*%
%TO.N,unconnected-(U3-NC-Pad4)*%
X213200000Y-89700000D03*
%TO.P,U3,5,GPIO2/ADC1_CH2_5*%
%TO.N,GPIO2_BOOT*%
X213200000Y-90500000D03*
%TO.P,U3,6,GPIO3/ADC1_CH3_6*%
%TO.N,GPIO3*%
X213200000Y-91300000D03*
%TO.P,U3,7,NC_7*%
%TO.N,unconnected-(U3-NC-Pad7)*%
X213200000Y-92100000D03*
%TO.P,U3,8,EN/CHIP_PU_8*%
%TO.N,EN*%
X213200000Y-92900000D03*
%TO.P,U3,9,NC_9*%
%TO.N,unconnected-(U3-NC-Pad9)*%
X213200000Y-93700000D03*
%TO.P,U3,10,NC_10*%
%TO.N,unconnected-(U3-NC-Pad10)*%
X213200000Y-94500000D03*
%TO.P,U3,11,GND_11*%
%TO.N,GND*%
X213200000Y-95300000D03*
D16*
%TO.P,U3,12,GPIO0/ADC1_CH0/XTAL_32K_P_12*%
%TO.N,GPIO0*%
X214300000Y-96200000D03*
%TO.P,U3,13,GPIO1/ADC1_CH1/XTAL_32K_N_13*%
%TO.N,GPIO1*%
X215100000Y-96200000D03*
%TO.P,U3,14,GND_14*%
%TO.N,GND*%
X215900000Y-96200000D03*
%TO.P,U3,15,NC_15*%
%TO.N,unconnected-(U3-NC-Pad15)*%
X216700000Y-96200000D03*
%TO.P,U3,16,GPIO10_16*%
%TO.N,USER_BTN*%
X217500000Y-96200000D03*
%TO.P,U3,17,NC_17*%
%TO.N,unconnected-(U3-NC-Pad17)*%
X218300000Y-96200000D03*
%TO.P,U3,18,GPIO4/ADC1_CH4_18*%
%TO.N,GPIO4*%
X219100000Y-96200000D03*
%TO.P,U3,19,GPIO5/ADC2_CH0_19*%
%TO.N,GPIO5*%
X219900000Y-96200000D03*
%TO.P,U3,20,GPIO6_20*%
%TO.N,LED0*%
X220700000Y-96200000D03*
%TO.P,U3,21,GPIO7_21*%
%TO.N,LED1*%
X221500000Y-96200000D03*
%TO.P,U3,22,GPIO8_22*%
%TO.N,GPIO8_BOOT*%
X222300000Y-96200000D03*
%TO.P,U3,23,GPIO9_23*%
%TO.N,GPIO9_BOOT*%
X223100000Y-96200000D03*
%TO.P,U3,24,NC_24*%
%TO.N,unconnected-(U3-NC-Pad24)*%
X223900000Y-96200000D03*
D15*
%TO.P,U3,25,NC_25*%
%TO.N,unconnected-(U3-NC-Pad25)*%
X225000000Y-95300000D03*
%TO.P,U3,26,GPIO18/USB_D-_26*%
%TO.N,USBD-*%
X225000000Y-94500000D03*
%TO.P,U3,27,GPIO19/USB_D+_27*%
%TO.N,USBD+*%
X225000000Y-93700000D03*
%TO.P,U3,28,NC_28*%
%TO.N,unconnected-(U3-NC-Pad28)*%
X225000000Y-92900000D03*
%TO.P,U3,29,NC_29*%
%TO.N,unconnected-(U3-NC-Pad29)*%
X225000000Y-92100000D03*
%TO.P,U3,30,GPIO20/U0RXD_30*%
%TO.N,RXD*%
X225000000Y-91300000D03*
%TO.P,U3,31,GPIO21/U0TXD_31*%
%TO.N,TXD*%
X225000000Y-90500000D03*
%TO.P,U3,32,NC_32*%
%TO.N,unconnected-(U3-NC-Pad32)*%
X225000000Y-89700000D03*
%TO.P,U3,33,NC_33*%
%TO.N,unconnected-(U3-NC-Pad33)*%
X225000000Y-88900000D03*
%TO.P,U3,34,NC_34*%
%TO.N,unconnected-(U3-NC-Pad34)*%
X225000000Y-88100000D03*
%TO.P,U3,35,NC_35*%
%TO.N,unconnected-(U3-NC-Pad35)*%
X225000000Y-87300000D03*
D16*
%TO.P,U3,36,GND_36*%
%TO.N,GND*%
X223900000Y-86400000D03*
%TO.P,U3,37,GND_37*%
X223100000Y-86400000D03*
%TO.P,U3,38,GND_38*%
X222300000Y-86400000D03*
%TO.P,U3,39,GND_39*%
X221500000Y-86400000D03*
%TO.P,U3,40,GND_40*%
X220700000Y-86400000D03*
%TO.P,U3,41,GND_41*%
X219900000Y-86400000D03*
%TO.P,U3,42,GND_42*%
X219100000Y-86400000D03*
%TO.P,U3,43,GND_43*%
X218300000Y-86400000D03*
%TO.P,U3,44,GND_44*%
X217500000Y-86400000D03*
%TO.P,U3,45,GND_45*%
X216700000Y-86400000D03*
%TO.P,U3,46,GND_46*%
X215900000Y-86400000D03*
%TO.P,U3,47,GND_47*%
X215100000Y-86400000D03*
%TO.P,U3,48,GND_48*%
X214300000Y-86400000D03*
D17*
%TO.P,U3,49,GND_49*%
X217125000Y-89325000D03*
D18*
X217125000Y-91300000D03*
X217125000Y-93275000D03*
X219100000Y-89325000D03*
X219100000Y-91300000D03*
X219100000Y-93275000D03*
X221075000Y-89325000D03*
X221075000Y-91300000D03*
X221075000Y-93275000D03*
D19*
%TO.P,U3,50,GND_50*%
X225050000Y-86350000D03*
%TO.P,U3,51,GND_51*%
X225050000Y-96250000D03*
%TO.P,U3,52,GND_52*%
X213150000Y-96250000D03*
%TO.P,U3,53,GND_53*%
X213150000Y-86350000D03*
%TD*%
D20*
%TO.P,U2,1,I/O1_1*%
%TO.N,Net-(J1-D--PadA7)*%
X217650001Y-118637500D03*
%TO.P,U2,2,GND_2*%
%TO.N,GND*%
X218600000Y-118637500D03*
%TO.P,U2,3,I/O2_3*%
%TO.N,Net-(J1-D+-PadA6)*%
X219549999Y-118637500D03*
%TO.P,U2,4,I/O2_4*%
%TO.N,USBD+*%
X219549999Y-116362500D03*
%TO.P,U2,5,VBUS_5*%
%TO.N,VBUS*%
X218600000Y-116362500D03*
%TO.P,U2,6,I/O1_6*%
%TO.N,USBD-*%
X217650001Y-116362500D03*
%TD*%
%TO.P,U1,1,VIN_1*%
%TO.N,VBUS*%
X222050001Y-112337500D03*
%TO.P,U1,2,GND_2*%
%TO.N,GND*%
X223000000Y-112337500D03*
%TO.P,U1,3,CE_3*%
%TO.N,Net-(U1-CE)*%
X223949999Y-112337500D03*
%TO.P,U1,4,NC_4*%
%TO.N,unconnected-(U1-NC-Pad4)*%
X223949999Y-110062500D03*
%TO.P,U1,5,VOUT_5*%
%TO.N,+3.3V*%
X222050001Y-110062500D03*
%TD*%
D14*
%TO.P,RESET1,1,1_1*%
%TO.N,GND*%
X205300000Y-96400000D03*
%TO.P,RESET1,2,2_2*%
%TO.N,EN*%
X208700000Y-96400000D03*
%TD*%
D21*
%TO.P,R10,1*%
%TO.N,+3.3V*%
X222500000Y-98609999D03*
%TO.P,R10,2*%
%TO.N,GPIO8_BOOT*%
X222500000Y-97590001D03*
%TD*%
D22*
%TO.P,R9,1*%
%TO.N,+3.3V*%
X210390001Y-92300000D03*
%TO.P,R9,2*%
%TO.N,GPIO2_BOOT*%
X211409999Y-92300000D03*
%TD*%
D23*
%TO.P,R8,2*%
%TO.N,EN*%
X208890001Y-98700000D03*
%TO.P,R8,1*%
%TO.N,+3.3V*%
X209909999Y-98700000D03*
%TD*%
D22*
%TO.P,R7,1*%
%TO.N,+3.3V*%
X230300000Y-89400000D03*
%TO.P,R7,2*%
%TO.N,Net-(D3-A)*%
X231320000Y-89400000D03*
%TD*%
%TO.P,R6,1*%
%TO.N,+3.3V*%
X230142499Y-93500000D03*
%TO.P,R6,2*%
%TO.N,Net-(D2-A)*%
X231162499Y-93500000D03*
%TD*%
%TO.P,R5,1*%
%TO.N,+3.3V*%
X228090000Y-100700000D03*
%TO.P,R5,2*%
%TO.N,GPIO9_BOOT*%
X229110000Y-100700000D03*
%TD*%
%TO.P,R4,1*%
%TO.N,+3.3V*%
X215790000Y-102500000D03*
%TO.P,R4,2*%
%TO.N,USER_BTN*%
X216810000Y-102500000D03*
%TD*%
%TO.P,R3,1*%
%TO.N,VBUS*%
X221990001Y-116000000D03*
%TO.P,R3,2*%
%TO.N,Net-(U1-CE)*%
X223009999Y-116000000D03*
%TD*%
D23*
%TO.P,R2,1*%
%TO.N,Net-(J1-CC1)*%
X215809999Y-117200000D03*
%TO.P,R2,2*%
%TO.N,GND*%
X214790001Y-117200000D03*
%TD*%
D22*
%TO.P,R1,1*%
%TO.N,Net-(J1-CC2)*%
X221490001Y-118200000D03*
%TO.P,R1,2*%
%TO.N,GND*%
X222509999Y-118200000D03*
%TD*%
D24*
%TO.P,J1,A1,GND_A1*%
%TO.N,GND*%
X214800000Y-120675000D03*
%TO.P,J1,A4,VBUS_A4*%
%TO.N,VBUS*%
X215600000Y-120675000D03*
D25*
%TO.P,J1,A5,CC1_A5*%
%TO.N,Net-(J1-CC1)*%
X216750000Y-120675000D03*
%TO.P,J1,A6,D+_A6*%
%TO.N,Net-(J1-D+-PadA6)*%
X217750000Y-120675000D03*
%TO.P,J1,A7,D-_A7*%
%TO.N,Net-(J1-D--PadA7)*%
X218250000Y-120675000D03*
%TO.P,J1,A8,SBU1_A8*%
%TO.N,unconnected-(J1-SBU1-PadA8)*%
X219250000Y-120675000D03*
D24*
%TO.P,J1,A9,VBUS_A9*%
%TO.N,VBUS*%
X220400000Y-120675000D03*
%TO.P,J1,A12,GND_A12*%
%TO.N,GND*%
X221200000Y-120675000D03*
%TO.P,J1,B1,GND_B1*%
X221200000Y-120675000D03*
%TO.P,J1,B4,VBUS_B4*%
%TO.N,VBUS*%
X220400000Y-120675000D03*
D25*
%TO.P,J1,B5,CC2_B5*%
%TO.N,Net-(J1-CC2)*%
X219750000Y-120675000D03*
%TO.P,J1,B6,D+_B6*%
%TO.N,Net-(J1-D+-PadA6)*%
X218750000Y-120675000D03*
%TO.P,J1,B7,D-_B7*%
%TO.N,Net-(J1-D--PadA7)*%
X217250000Y-120675000D03*
%TO.P,J1,B8,SBU2_B8*%
%TO.N,unconnected-(J1-SBU2-PadB8)*%
X216250000Y-120675000D03*
D24*
%TO.P,J1,B9,VBUS_B9*%
%TO.N,VBUS*%
X215600000Y-120675000D03*
%TO.P,J1,B12,GND_B12*%
%TO.N,GND*%
X214800000Y-120675000D03*
D26*
%TO.P,J1,SH,SHIELD_SH*%
X213680000Y-121275000D03*
D27*
X213680000Y-125475000D03*
D26*
X222320000Y-121275000D03*
D27*
X222320000Y-125475000D03*
%TD*%
D28*
%TO.P,D3,1,K_1*%
%TO.N,LED1*%
X229510000Y-87800000D03*
%TO.P,D3,2,A_2*%
%TO.N,Net-(D3-A)*%
X231385000Y-87800000D03*
%TD*%
%TO.P,D2,1,K_1*%
%TO.N,LED0*%
X229462499Y-91900000D03*
%TO.P,D2,2,A_2*%
%TO.N,Net-(D2-A)*%
X231337501Y-91900000D03*
%TD*%
D29*
%TO.P,D1,1,K_1*%
%TO.N,VBUS*%
X215549999Y-118900000D03*
%TO.P,D1,2,A_2*%
%TO.N,GND*%
X214850001Y-118900000D03*
%TD*%
D30*
%TO.P,C7,1*%
%TO.N,+3.3V*%
X211449999Y-90500000D03*
%TO.P,C7,2*%
%TO.N,GND*%
X209550001Y-90500000D03*
%TD*%
D31*
%TO.P,C6,1*%
%TO.N,+3.3V*%
X211780000Y-89000000D03*
%TO.P,C6,2*%
%TO.N,GND*%
X210820000Y-89000000D03*
%TD*%
D32*
%TO.P,C5,1*%
%TO.N,EN*%
X208920000Y-99700000D03*
%TO.P,C5,2*%
%TO.N,GND*%
X209880000Y-99700000D03*
%TD*%
D31*
%TO.P,C4,1*%
%TO.N,GPIO9_BOOT*%
X228880000Y-105200000D03*
%TO.P,C4,2*%
%TO.N,GND*%
X227920000Y-105200000D03*
%TD*%
%TO.P,C3,1*%
%TO.N,USER_BTN*%
X215480000Y-107000000D03*
%TO.P,C3,2*%
%TO.N,GND*%
X214520000Y-107000000D03*
%TD*%
D13*
%TO.P,C1,1*%
%TO.N,VBUS*%
X222250000Y-114300000D03*
%TO.P,C1,2*%
%TO.N,GND*%
X224150000Y-114300000D03*
%TD*%
D14*
%TO.P,BOOT1,1,1_1*%
%TO.N,GND*%
X226600000Y-103000000D03*
%TO.P,BOOT1,2,2_2*%
%TO.N,GPIO9_BOOT*%
X230000000Y-103000000D03*
%TD*%
D33*
%TO.N,GPIO0*%
X214100000Y-98200000D03*
X228700000Y-116900000D03*
%TO.N,GPIO1*%
X215100000Y-99400000D03*
X227400000Y-109100000D03*
%TO.N,GPIO3*%
X215100000Y-91400000D03*
X228500000Y-110600000D03*
%TO.N,GPIO4*%
X219057302Y-97783988D03*
X223800000Y-104500000D03*
%TO.N,GPIO5*%
X223800000Y-103400000D03*
X219900000Y-98100000D03*
%TO.N,GND*%
X231000000Y-108300000D03*
%TO.N,RXD*%
X223800000Y-91100000D03*
X227300000Y-91200000D03*
%TO.N,GND*%
X205300000Y-114500000D03*
X205500000Y-116400000D03*
X205700000Y-118500000D03*
X205700000Y-121000000D03*
%TO.N,+3.3V*%
X205300000Y-108200000D03*
X205400000Y-105700000D03*
X205400000Y-103200000D03*
%TO.N,GND*%
X213600000Y-107300000D03*
X213200000Y-103000000D03*
%TO.N,+3.3V*%
X214900000Y-102400000D03*
%TO.N,GND*%
X225300000Y-103100000D03*
X227100000Y-105400000D03*
%TO.N,GPIO9_BOOT*%
X229000000Y-99300000D03*
X223600000Y-94900000D03*
%TO.N,LED1*%
X222200000Y-94600000D03*
X226500000Y-92800000D03*
%TO.N,LED0*%
X220700000Y-94700000D03*
X227900000Y-91900000D03*
%TO.N,+3.3V*%
X229310000Y-89600000D03*
X229200000Y-93700000D03*
X210300000Y-93200000D03*
X223500000Y-98600000D03*
%TO.N,GND*%
X204300000Y-96400000D03*
X209900000Y-100500000D03*
%TO.N,+3.3V*%
X210800000Y-98700000D03*
%TO.N,GND*%
X215900000Y-97400000D03*
X226200000Y-96300000D03*
X212000000Y-96300000D03*
X212000000Y-95300000D03*
%TO.N,+3.3V*%
X214100000Y-88900000D03*
%TO.N,GND*%
X209500000Y-89100000D03*
X210800000Y-88200000D03*
X226300000Y-86300000D03*
X211900000Y-86400000D03*
X211900000Y-88100000D03*
X211900000Y-87300000D03*
X223900000Y-87000000D03*
X223100000Y-87000000D03*
X222300000Y-87000000D03*
X221500000Y-87000000D03*
X220700000Y-87000000D03*
X219900000Y-87000000D03*
X219100000Y-87000000D03*
X218300000Y-87000000D03*
X217500000Y-87000000D03*
X216700000Y-87000000D03*
X215900000Y-87000000D03*
X215100000Y-87000000D03*
X214300000Y-87000000D03*
X220100000Y-92200000D03*
X220100000Y-90200000D03*
X218100000Y-92300000D03*
X218100000Y-90300000D03*
%TO.N,+3.3V*%
X221100000Y-110000000D03*
X221100000Y-108100000D03*
%TO.N,GND*%
X223100000Y-111200000D03*
X225300000Y-108100000D03*
X225300000Y-114200000D03*
%TO.N,VBUS*%
X221000000Y-112800000D03*
X221000000Y-116000000D03*
X220900000Y-114400000D03*
X220888944Y-119523322D03*
X218600000Y-115200000D03*
X216000000Y-118100000D03*
%TO.N,GND*%
X221600000Y-124800000D03*
X214400000Y-124600000D03*
X221653245Y-122222882D03*
X214359362Y-122244632D03*
X218600000Y-117600000D03*
X223300000Y-118200000D03*
X214000000Y-118900000D03*
X214000000Y-117200000D03*
%TD*%
%TO.N,USBD-*%
D34*
X226706802Y-94325000D02*
X227475000Y-95093198D01*
X225600001Y-94500000D02*
X225775001Y-94325000D01*
X227475000Y-95093198D02*
X227475000Y-96427858D01*
X227475000Y-97345888D02*
X227475000Y-97606802D01*
X227475000Y-96427858D02*
X227475000Y-97345888D01*
X225000000Y-94500000D02*
X225600001Y-94500000D01*
X227475000Y-97606802D02*
X221433663Y-103648139D01*
X225775001Y-94325000D02*
X226706802Y-94325000D01*
%TO.N,TXD*%
D35*
X233100000Y-103210000D02*
X234200000Y-102110000D01*
X234200000Y-102110000D02*
X234200000Y-89103912D01*
X234200000Y-89103912D02*
X231871088Y-86775000D01*
X231871088Y-86775000D02*
X227925000Y-86775000D01*
X227925000Y-86775000D02*
X227925000Y-88225000D01*
X227925000Y-88225000D02*
X225650000Y-90500000D01*
X225650000Y-90500000D02*
X225000000Y-90500000D01*
%TO.N,GPIO0*%
X214100000Y-96400000D02*
X214300000Y-96200000D01*
X233100000Y-120990000D02*
X229010000Y-116900000D01*
X229010000Y-116900000D02*
X228700000Y-116900000D01*
X214100000Y-98200000D02*
X214100000Y-96400000D01*
%TO.N,GPIO1*%
X233100000Y-118450000D02*
X227400000Y-112750000D01*
X227400000Y-112750000D02*
X227400000Y-109100000D01*
X215100000Y-99400000D02*
X215100000Y-96200000D01*
%TO.N,GPIO3*%
X233100000Y-115910000D02*
X233100000Y-115200000D01*
X233100000Y-115200000D02*
X228500000Y-110600000D01*
X215100000Y-91400000D02*
X213300000Y-91400000D01*
X213300000Y-91400000D02*
X213200000Y-91300000D01*
%TO.N,GPIO4*%
X233100000Y-113370000D02*
X232670000Y-113370000D01*
X232670000Y-113370000D02*
X223800000Y-104500000D01*
X219057302Y-97783988D02*
X219057302Y-96242698D01*
X219057302Y-96242698D02*
X219100000Y-96200000D01*
%TO.N,GPIO5*%
X219900000Y-98100000D02*
X219900000Y-96200000D01*
X233100000Y-110830000D02*
X231230000Y-110830000D01*
X231230000Y-110830000D02*
X223800000Y-103400000D01*
%TO.N,GND*%
D36*
X231010000Y-108290000D02*
X231000000Y-108300000D01*
X233100000Y-108290000D02*
X231010000Y-108290000D01*
%TO.N,RXD*%
D35*
X223800000Y-91100000D02*
X224800000Y-91100000D01*
X224800000Y-91100000D02*
X225000000Y-91300000D01*
%TO.N,+3.3V*%
D36*
X203300000Y-105750000D02*
X203300000Y-108290000D01*
X203300000Y-103210000D02*
X203300000Y-105750000D01*
%TO.N,GND*%
X204170000Y-113370000D02*
X205300000Y-114500000D01*
X203300000Y-113370000D02*
X204170000Y-113370000D01*
X205010000Y-115910000D02*
X205500000Y-116400000D01*
X203300000Y-115910000D02*
X205010000Y-115910000D01*
X205650000Y-118450000D02*
X205700000Y-118500000D01*
X203300000Y-118450000D02*
X205650000Y-118450000D01*
X205690000Y-120990000D02*
X205700000Y-121000000D01*
X203300000Y-120990000D02*
X205690000Y-120990000D01*
%TO.N,VBUS*%
X203300000Y-110830000D02*
X210570000Y-118100000D01*
X210570000Y-118100000D02*
X216000000Y-118100000D01*
%TO.N,+3.3V*%
X205210000Y-108290000D02*
X205300000Y-108200000D01*
X203300000Y-108290000D02*
X205210000Y-108290000D01*
X205350000Y-105750000D02*
X205400000Y-105700000D01*
X203300000Y-105750000D02*
X205350000Y-105750000D01*
X205390000Y-103210000D02*
X205400000Y-103200000D01*
X203300000Y-103210000D02*
X205390000Y-103210000D01*
%TO.N,GND*%
X213900000Y-107000000D02*
X213600000Y-107300000D01*
X214520000Y-107000000D02*
X213900000Y-107000000D01*
X213200000Y-104800000D02*
X213200000Y-103000000D01*
%TO.N,+3.3V*%
X215000000Y-102500000D02*
X214900000Y-102400000D01*
X215790000Y-102500000D02*
X215000000Y-102500000D01*
%TO.N,USER_BTN*%
D35*
X216600000Y-104800000D02*
X216600000Y-105100000D01*
X216600000Y-105100000D02*
X215480000Y-106220000D01*
X215480000Y-106220000D02*
X215480000Y-107000000D01*
X216810000Y-102500000D02*
X216810000Y-104590000D01*
X216810000Y-104590000D02*
X216600000Y-104800000D01*
X217500000Y-96200000D02*
X217500000Y-101810000D01*
X217500000Y-101810000D02*
X216810000Y-102500000D01*
%TO.N,GND*%
D36*
X225400000Y-103000000D02*
X225300000Y-103100000D01*
X226600000Y-103000000D02*
X225400000Y-103000000D01*
X227300000Y-105200000D02*
X227100000Y-105400000D01*
X227920000Y-105200000D02*
X227300000Y-105200000D01*
%TO.N,GPIO9_BOOT*%
D35*
X230000000Y-103000000D02*
X230000000Y-103100000D01*
X228880000Y-104220000D02*
X228880000Y-105200000D01*
X230000000Y-103100000D02*
X228880000Y-104220000D01*
X229110000Y-100700000D02*
X229110000Y-100910000D01*
X229110000Y-100910000D02*
X230000000Y-101800000D01*
X230000000Y-101800000D02*
X230000000Y-103000000D01*
X223100000Y-95400000D02*
X223600000Y-94900000D01*
X223100000Y-96200000D02*
X223100000Y-95400000D01*
X229000000Y-99300000D02*
X229000000Y-100590000D01*
X229000000Y-100590000D02*
X229110000Y-100700000D01*
%TO.N,LED1*%
X221500000Y-95300000D02*
X221500000Y-96200000D01*
X229510000Y-87800000D02*
X226500000Y-90810000D01*
X222200000Y-94600000D02*
X221500000Y-95300000D01*
X226500000Y-90810000D02*
X226500000Y-92800000D01*
%TO.N,LED0*%
X229462499Y-91900000D02*
X227900000Y-91900000D01*
X220700000Y-94700000D02*
X220700000Y-96200000D01*
%TO.N,Net-(D2-A)*%
X231337501Y-91900000D02*
X231337501Y-93324998D01*
X231337501Y-93324998D02*
X231162499Y-93500000D01*
%TO.N,Net-(D3-A)*%
X231385000Y-87800000D02*
X231385000Y-89335000D01*
X231385000Y-89335000D02*
X231320000Y-89400000D01*
%TO.N,+3.3V*%
D36*
X229510000Y-89400000D02*
X229310000Y-89600000D01*
X230300000Y-89400000D02*
X229510000Y-89400000D01*
X229400000Y-93500000D02*
X229200000Y-93700000D01*
X230142499Y-93500000D02*
X229400000Y-93500000D01*
X210390001Y-93109999D02*
X210300000Y-93200000D01*
X210390001Y-92300000D02*
X210390001Y-93109999D01*
%TO.N,GPIO2_BOOT*%
D35*
X213200000Y-90500000D02*
X212550000Y-90500000D01*
X212550000Y-90500000D02*
X212274999Y-90775001D01*
X212274999Y-91435000D02*
X211409999Y-92300000D01*
X212274999Y-90775001D02*
X212274999Y-91435000D01*
%TO.N,+3.3V*%
D36*
X223490001Y-98609999D02*
X223500000Y-98600000D01*
X222500000Y-98609999D02*
X223490001Y-98609999D01*
%TO.N,GPIO8_BOOT*%
D35*
X222300000Y-96200000D02*
X222300000Y-97390001D01*
X222300000Y-97390001D02*
X222500000Y-97590001D01*
%TO.N,GND*%
D36*
X205300000Y-96400000D02*
X204300000Y-96400000D01*
%TO.N,EN*%
D35*
X208890001Y-98700000D02*
X208890001Y-96590001D01*
X208890001Y-96590001D02*
X208700000Y-96400000D01*
X208890001Y-98700000D02*
X208890001Y-99670001D01*
X208890001Y-99670001D02*
X208920000Y-99700000D01*
%TO.N,GND*%
D36*
X209880000Y-100480000D02*
X209900000Y-100500000D01*
X209880000Y-99700000D02*
X209880000Y-100480000D01*
%TO.N,+3.3V*%
X209909999Y-98700000D02*
X210800000Y-98700000D01*
%TO.N,GND*%
X215900000Y-96200000D02*
X215900000Y-97400000D01*
X226150000Y-96250000D02*
X226200000Y-96300000D01*
X225050000Y-96250000D02*
X226150000Y-96250000D01*
X212050000Y-96250000D02*
X212000000Y-96300000D01*
X213150000Y-96250000D02*
X212050000Y-96250000D01*
X213200000Y-95300000D02*
X212000000Y-95300000D01*
%TO.N,USBD-*%
D34*
X217950000Y-114930761D02*
X217950000Y-115068750D01*
X218375000Y-106706802D02*
X218375000Y-114505761D01*
%TO.N,USBD+*%
X225600001Y-93700000D02*
X225775001Y-93875000D01*
%TO.N,USBD-*%
X217950000Y-115068750D02*
X217650001Y-115368749D01*
X218375000Y-114505761D02*
X217950000Y-114930761D01*
%TO.N,USBD+*%
X219250000Y-114930761D02*
X219250000Y-115068750D01*
X226893198Y-93875000D02*
X227925000Y-94906802D01*
X221751861Y-103966337D02*
X221673144Y-104045054D01*
%TO.N,USBD-*%
X217650001Y-115368749D02*
X217650001Y-116362500D01*
%TO.N,USBD+*%
X218825000Y-114505761D02*
X219250000Y-114930761D01*
X227925000Y-94906802D02*
X227925000Y-97793198D01*
X227925000Y-97793198D02*
X221751861Y-103966337D01*
X225000000Y-93700000D02*
X225600001Y-93700000D01*
X221673144Y-104045054D02*
X218825000Y-106893198D01*
%TO.N,USBD-*%
X221433663Y-103648139D02*
X221354946Y-103726856D01*
%TO.N,USBD+*%
X218825000Y-106893198D02*
X218825000Y-114505761D01*
X225775001Y-93875000D02*
X226893198Y-93875000D01*
X219250000Y-115068750D02*
X219549999Y-115368749D01*
X219549999Y-115368749D02*
X219549999Y-116362500D01*
%TO.N,USBD-*%
X221354946Y-103726856D02*
X218375000Y-106706802D01*
%TO.N,+3.3V*%
D36*
X213200000Y-88900000D02*
X214100000Y-88900000D01*
X211449999Y-90500000D02*
X211780000Y-90169999D01*
X211780000Y-90169999D02*
X211780000Y-89000000D01*
%TO.N,GND*%
X209550001Y-89150001D02*
X209500000Y-89100000D01*
X209550001Y-90500000D02*
X209550001Y-89150001D01*
X210820000Y-88220000D02*
X210800000Y-88200000D01*
X210820000Y-89000000D02*
X210820000Y-88220000D01*
%TO.N,+3.3V*%
X213200000Y-88900000D02*
X211880000Y-88900000D01*
X211880000Y-88900000D02*
X211780000Y-89000000D01*
%TO.N,GND*%
X226250000Y-86350000D02*
X226300000Y-86300000D01*
X225050000Y-86350000D02*
X226250000Y-86350000D01*
X211950000Y-86350000D02*
X211900000Y-86400000D01*
X213150000Y-86350000D02*
X211950000Y-86350000D01*
X213200000Y-88100000D02*
X211900000Y-88100000D01*
X213200000Y-87300000D02*
X211900000Y-87300000D01*
X223900000Y-86400000D02*
X223900000Y-87000000D01*
X223100000Y-86400000D02*
X223100000Y-87000000D01*
X222300000Y-86400000D02*
X222300000Y-87000000D01*
X221500000Y-86400000D02*
X221500000Y-87000000D01*
X220700000Y-86400000D02*
X220700000Y-87000000D01*
X219900000Y-86400000D02*
X219900000Y-87000000D01*
X219100000Y-86400000D02*
X219100000Y-87000000D01*
X218300000Y-86400000D02*
X218300000Y-87000000D01*
X217500000Y-86400000D02*
X217500000Y-87000000D01*
X216700000Y-86400000D02*
X216700000Y-87000000D01*
X215900000Y-86400000D02*
X215900000Y-87000000D01*
X215100000Y-86400000D02*
X215100000Y-87000000D01*
X214300000Y-86400000D02*
X214300000Y-87000000D01*
X218100000Y-92300000D02*
X218125000Y-92300000D01*
X218125000Y-92300000D02*
X219100000Y-93275000D01*
X218100000Y-92300000D02*
X217125000Y-93275000D01*
X220100000Y-92200000D02*
X220100000Y-92300000D01*
X220100000Y-92300000D02*
X221075000Y-93275000D01*
X219100000Y-93275000D02*
X219100000Y-93200000D01*
X219100000Y-93200000D02*
X220100000Y-92200000D01*
X219100000Y-91300000D02*
X218100000Y-92300000D01*
X219100000Y-91300000D02*
X219200000Y-91300000D01*
X219200000Y-91300000D02*
X220100000Y-92200000D01*
X220100000Y-90200000D02*
X220100000Y-90325000D01*
X220100000Y-90325000D02*
X221075000Y-91300000D01*
X219100000Y-89325000D02*
X219225000Y-89325000D01*
X219225000Y-89325000D02*
X220100000Y-90200000D01*
X219100000Y-91300000D02*
X219100000Y-91200000D01*
X219100000Y-91200000D02*
X220100000Y-90200000D01*
X217125000Y-91300000D02*
X217125000Y-91275000D01*
X217125000Y-91275000D02*
X218100000Y-90300000D01*
X219100000Y-91300000D02*
X218100000Y-90300000D01*
X219100000Y-89325000D02*
X219075000Y-89325000D01*
X219075000Y-89325000D02*
X218100000Y-90300000D01*
X221000000Y-91300000D02*
X220100000Y-92200000D01*
X221075000Y-91300000D02*
X221000000Y-91300000D01*
X220975000Y-89325000D02*
X220100000Y-90200000D01*
X221075000Y-89325000D02*
X220975000Y-89325000D01*
X217125000Y-91325000D02*
X218100000Y-92300000D01*
X217125000Y-91300000D02*
X217125000Y-91325000D01*
X217125000Y-89325000D02*
X218100000Y-90300000D01*
%TO.N,+3.3V*%
X221162500Y-110062500D02*
X221100000Y-110000000D01*
X222050001Y-110062500D02*
X221162500Y-110062500D01*
X222250000Y-108100000D02*
X221100000Y-108100000D01*
%TO.N,Net-(U1-CE)*%
D35*
X223009999Y-116000000D02*
X223075000Y-115934999D01*
X223949999Y-112725909D02*
X223949999Y-112337500D01*
X223075000Y-115934999D02*
X223075000Y-113600908D01*
X223075000Y-113600908D02*
X223949999Y-112725909D01*
%TO.N,GND*%
D36*
X223000000Y-111300000D02*
X223100000Y-111200000D01*
X223000000Y-112337500D02*
X223000000Y-111300000D01*
X224150000Y-108100000D02*
X225300000Y-108100000D01*
X225200000Y-114300000D02*
X225300000Y-114200000D01*
X224150000Y-114300000D02*
X225200000Y-114300000D01*
%TO.N,VBUS*%
X221462500Y-112337500D02*
X221000000Y-112800000D01*
X222050001Y-112337500D02*
X221462500Y-112337500D01*
X221990001Y-116000000D02*
X221000000Y-116000000D01*
X221000000Y-114300000D02*
X220900000Y-114400000D01*
X222250000Y-114300000D02*
X221000000Y-114300000D01*
%TO.N,Net-(J1-CC2)*%
D35*
X221490001Y-118200000D02*
X221220002Y-118200000D01*
X221220002Y-118200000D02*
X220200000Y-119220002D01*
X220200000Y-119220002D02*
X220200000Y-119469804D01*
X220200000Y-119469804D02*
X219750000Y-119919804D01*
X219750000Y-119919804D02*
X219750000Y-120675000D01*
%TO.N,VBUS*%
D36*
X220400000Y-120675000D02*
X220400000Y-120012266D01*
X220400000Y-120012266D02*
X220888944Y-119523322D01*
%TO.N,Net-(J1-CC1)*%
D35*
X215809999Y-117200000D02*
X216054595Y-117200000D01*
X216054595Y-117200000D02*
X216750000Y-117895405D01*
X216750000Y-117895405D02*
X216750000Y-120675000D01*
%TO.N,VBUS*%
D36*
X215600000Y-120031170D02*
X215600000Y-120675000D01*
X216000000Y-118800000D02*
X215900000Y-118900000D01*
X215900000Y-118900000D02*
X215549999Y-118900000D01*
X216000000Y-118100000D02*
X216000000Y-118800000D01*
%TO.N,Net-(J1-D+-PadA6)*%
D35*
X217750000Y-120675000D02*
X217750000Y-119987236D01*
X218750000Y-119987236D02*
X218750000Y-120675000D01*
X217750000Y-119987236D02*
X218007236Y-119730000D01*
X218007236Y-119730000D02*
X218492764Y-119730000D01*
X218492764Y-119730000D02*
X218750000Y-119987236D01*
%TO.N,Net-(J1-D--PadA7)*%
X218250000Y-120675000D02*
X218250000Y-121362764D01*
X218250000Y-121362764D02*
X217992764Y-121620000D01*
X217992764Y-121620000D02*
X217507236Y-121620000D01*
X217250000Y-121362764D02*
X217250000Y-120675000D01*
X217507236Y-121620000D02*
X217250000Y-121362764D01*
%TO.N,Net-(J1-D+-PadA6)*%
X218750000Y-119987236D02*
X219549999Y-119187237D01*
X219549999Y-119187237D02*
X219549999Y-118637500D01*
%TO.N,Net-(J1-D--PadA7)*%
X217650001Y-118637500D02*
X217250000Y-119037501D01*
X217250000Y-119037501D02*
X217250000Y-120675000D01*
%TO.N,VBUS*%
D36*
X215600000Y-120675000D02*
X215600000Y-118950001D01*
X215600000Y-118950001D02*
X215549999Y-118900000D01*
X218600000Y-116362500D02*
X218600000Y-115200000D01*
%TO.N,GND*%
X222275000Y-125475000D02*
X221600000Y-124800000D01*
X222320000Y-125475000D02*
X222275000Y-125475000D01*
X213680000Y-125320000D02*
X214400000Y-124600000D01*
X213680000Y-125475000D02*
X213680000Y-125320000D01*
X221653245Y-121128245D02*
X221653245Y-122222882D01*
X221200000Y-120675000D02*
X221653245Y-121128245D01*
X214359362Y-121115638D02*
X214359362Y-122244632D01*
X214800000Y-120675000D02*
X214359362Y-121115638D01*
X222320000Y-125475000D02*
X213680000Y-125475000D01*
X222320000Y-121275000D02*
X222320000Y-125475000D01*
X213680000Y-121275000D02*
X213680000Y-125475000D01*
X214800000Y-120675000D02*
X214280000Y-120675000D01*
X214280000Y-120675000D02*
X213680000Y-121275000D01*
X221200000Y-120675000D02*
X221720000Y-120675000D01*
X221720000Y-120675000D02*
X222320000Y-121275000D01*
X214800000Y-120675000D02*
X214800000Y-118950001D01*
X214800000Y-118950001D02*
X214850001Y-118900000D01*
X218600000Y-118637500D02*
X218600000Y-117600000D01*
X222509999Y-118200000D02*
X223300000Y-118200000D01*
X214850001Y-118900000D02*
X214000000Y-118900000D01*
X214790001Y-117200000D02*
X214000000Y-117200000D01*
%TO.N,RXD*%
D35*
X233100000Y-105750000D02*
X231800000Y-104450000D01*
X231800000Y-104450000D02*
X231800000Y-97600000D01*
X231800000Y-97600000D02*
X227225000Y-93025000D01*
X227225000Y-91275000D02*
X227300000Y-91200000D01*
X227225000Y-93025000D02*
X227225000Y-91275000D01*
%TD*%
M02*
